<?xml version="1.0" encoding="utf-8" ?>
<svg baseProfile="full" height="512" version="1.1" width="2048" xmlns="http://www.w3.org/2000/svg" xmlns:ev="http://www.w3.org/2001/xml-events" xmlns:xlink="http://www.w3.org/1999/xlink"><defs /><rect fill="white" height="512" stroke="none" width="2048" x="0" y="0" /><g transform="translate(36,0)"><g fill="black" fill-opacity=".1" stroke="none"><rect height="36.25" width="1976" x="0" y="48.0" /><rect height="36.25" width="1976" x="0" y="102.25" /><rect height="36.25" width="1976" x="0" y="156.5" /><rect height="36.25" width="1976" x="0" y="210.75" /><rect height="36.25" width="1976" x="0" y="265.0" /><rect height="36.25" width="1976" x="0" y="319.25" /><rect height="36.25" width="1976" x="0" y="373.5" /><rect height="36.25" width="1976" x="0" y="427.75" /></g><g stroke="rgb(128,128,128)" stroke-linecap="round" stroke-linejoin="round" stroke-width="2.000"><line x1="0.0" x2="0.0" y1="0" y2="512.0" /><line x1="94.0952380952381" x2="94.0952380952381" y1="0" y2="512.0" /><line x1="188.1904761904762" x2="188.1904761904762" y1="0" y2="512.0" /><line x1="282.2857142857143" x2="282.2857142857143" y1="0" y2="512.0" /><line x1="376.3809523809524" x2="376.3809523809524" y1="0" y2="512.0" /><line x1="470.4761904761905" x2="470.4761904761905" y1="0" y2="512.0" /><line x1="564.5714285714286" x2="564.5714285714286" y1="0" y2="512.0" /><line x1="658.6666666666666" x2="658.6666666666666" y1="0" y2="512.0" /><line x1="752.7619047619048" x2="752.7619047619048" y1="0" y2="512.0" /><line x1="846.8571428571429" x2="846.8571428571429" y1="0" y2="512.0" /><line x1="940.952380952381" x2="940.952380952381" y1="0" y2="512.0" /><line x1="1035.047619047619" x2="1035.047619047619" y1="0" y2="512.0" /><line x1="1129.142857142857" x2="1129.142857142857" y1="0" y2="512.0" /><line x1="1223.2380952380952" x2="1223.2380952380952" y1="0" y2="512.0" /><line x1="1317.3333333333333" x2="1317.3333333333333" y1="0" y2="512.0" /><line x1="1411.4285714285713" x2="1411.4285714285713" y1="0" y2="512.0" /><line x1="1505.5238095238096" x2="1505.5238095238096" y1="0" y2="512.0" /><line x1="1599.6190476190477" x2="1599.6190476190477" y1="0" y2="512.0" /><line x1="1693.7142857142858" x2="1693.7142857142858" y1="0" y2="512.0" /><line x1="1787.8095238095239" x2="1787.8095238095239" y1="0" y2="512.0" /><line x1="1881.904761904762" x2="1881.904761904762" y1="0" y2="512.0" /><line x1="1976.0" x2="1976.0" y1="0" y2="512.0" /></g><g stroke="rgb(197,196,196)" stroke-linecap="round" stroke-linejoin="round" stroke-width="0.500"><line x1="9.40952380952381" x2="9.40952380952381" y1="0" y2="512.0" /><line x1="18.81904761904762" x2="18.81904761904762" y1="0" y2="512.0" /><line x1="28.228571428571428" x2="28.228571428571428" y1="0" y2="512.0" /><line x1="37.63809523809524" x2="37.63809523809524" y1="0" y2="512.0" /><line x1="47.04761904761905" x2="47.04761904761905" y1="0" y2="512.0" /><line x1="56.457142857142856" x2="56.457142857142856" y1="0" y2="512.0" /><line x1="65.86666666666666" x2="65.86666666666666" y1="0" y2="512.0" /><line x1="75.27619047619048" x2="75.27619047619048" y1="0" y2="512.0" /><line x1="84.68571428571428" x2="84.68571428571428" y1="0" y2="512.0" /><line x1="103.5047619047619" x2="103.5047619047619" y1="0" y2="512.0" /><line x1="112.91428571428571" x2="112.91428571428571" y1="0" y2="512.0" /><line x1="122.32380952380953" x2="122.32380952380953" y1="0" y2="512.0" /><line x1="131.73333333333332" x2="131.73333333333332" y1="0" y2="512.0" /><line x1="141.14285714285714" x2="141.14285714285714" y1="0" y2="512.0" /><line x1="150.55238095238096" x2="150.55238095238096" y1="0" y2="512.0" /><line x1="159.96190476190475" x2="159.96190476190475" y1="0" y2="512.0" /><line x1="169.37142857142857" x2="169.37142857142857" y1="0" y2="512.0" /><line x1="178.78095238095239" x2="178.78095238095239" y1="0" y2="512.0" /><line x1="197.6" x2="197.6" y1="0" y2="512.0" /><line x1="207.0095238095238" x2="207.0095238095238" y1="0" y2="512.0" /><line x1="216.41904761904763" x2="216.41904761904763" y1="0" y2="512.0" /><line x1="225.82857142857142" x2="225.82857142857142" y1="0" y2="512.0" /><line x1="235.23809523809524" x2="235.23809523809524" y1="0" y2="512.0" /><line x1="244.64761904761906" x2="244.64761904761906" y1="0" y2="512.0" /><line x1="254.05714285714285" x2="254.05714285714285" y1="0" y2="512.0" /><line x1="263.46666666666664" x2="263.46666666666664" y1="0" y2="512.0" /><line x1="272.87619047619046" x2="272.87619047619046" y1="0" y2="512.0" /><line x1="291.6952380952381" x2="291.6952380952381" y1="0" y2="512.0" /><line x1="301.1047619047619" x2="301.1047619047619" y1="0" y2="512.0" /><line x1="310.51428571428573" x2="310.51428571428573" y1="0" y2="512.0" /><line x1="319.9238095238095" x2="319.9238095238095" y1="0" y2="512.0" /><line x1="329.3333333333333" x2="329.3333333333333" y1="0" y2="512.0" /><line x1="338.74285714285713" x2="338.74285714285713" y1="0" y2="512.0" /><line x1="348.15238095238095" x2="348.15238095238095" y1="0" y2="512.0" /><line x1="357.56190476190477" x2="357.56190476190477" y1="0" y2="512.0" /><line x1="366.9714285714286" x2="366.9714285714286" y1="0" y2="512.0" /><line x1="385.79047619047617" x2="385.79047619047617" y1="0" y2="512.0" /><line x1="395.2" x2="395.2" y1="0" y2="512.0" /><line x1="404.6095238095238" x2="404.6095238095238" y1="0" y2="512.0" /><line x1="414.0190476190476" x2="414.0190476190476" y1="0" y2="512.0" /><line x1="423.42857142857144" x2="423.42857142857144" y1="0" y2="512.0" /><line x1="432.83809523809526" x2="432.83809523809526" y1="0" y2="512.0" /><line x1="442.247619047619" x2="442.247619047619" y1="0" y2="512.0" /><line x1="451.65714285714284" x2="451.65714285714284" y1="0" y2="512.0" /><line x1="461.06666666666666" x2="461.06666666666666" y1="0" y2="512.0" /><line x1="479.8857142857143" x2="479.8857142857143" y1="0" y2="512.0" /><line x1="489.2952380952381" x2="489.2952380952381" y1="0" y2="512.0" /><line x1="498.7047619047619" x2="498.7047619047619" y1="0" y2="512.0" /><line x1="508.1142857142857" x2="508.1142857142857" y1="0" y2="512.0" /><line x1="517.5238095238095" x2="517.5238095238095" y1="0" y2="512.0" /><line x1="526.9333333333333" x2="526.9333333333333" y1="0" y2="512.0" /><line x1="536.3428571428572" x2="536.3428571428572" y1="0" y2="512.0" /><line x1="545.7523809523809" x2="545.7523809523809" y1="0" y2="512.0" /><line x1="555.1619047619048" x2="555.1619047619048" y1="0" y2="512.0" /><line x1="573.9809523809524" x2="573.9809523809524" y1="0" y2="512.0" /><line x1="583.3904761904762" x2="583.3904761904762" y1="0" y2="512.0" /><line x1="592.8" x2="592.8" y1="0" y2="512.0" /><line x1="602.2095238095238" x2="602.2095238095238" y1="0" y2="512.0" /><line x1="611.6190476190476" x2="611.6190476190476" y1="0" y2="512.0" /><line x1="621.0285714285715" x2="621.0285714285715" y1="0" y2="512.0" /><line x1="630.4380952380952" x2="630.4380952380952" y1="0" y2="512.0" /><line x1="639.847619047619" x2="639.847619047619" y1="0" y2="512.0" /><line x1="649.2571428571429" x2="649.2571428571429" y1="0" y2="512.0" /><line x1="668.0761904761905" x2="668.0761904761905" y1="0" y2="512.0" /><line x1="677.4857142857143" x2="677.4857142857143" y1="0" y2="512.0" /><line x1="686.8952380952381" x2="686.8952380952381" y1="0" y2="512.0" /><line x1="696.3047619047619" x2="696.3047619047619" y1="0" y2="512.0" /><line x1="705.7142857142857" x2="705.7142857142857" y1="0" y2="512.0" /><line x1="715.1238095238095" x2="715.1238095238095" y1="0" y2="512.0" /><line x1="724.5333333333333" x2="724.5333333333333" y1="0" y2="512.0" /><line x1="733.9428571428572" x2="733.9428571428572" y1="0" y2="512.0" /><line x1="743.3523809523809" x2="743.3523809523809" y1="0" y2="512.0" /><line x1="762.1714285714286" x2="762.1714285714286" y1="0" y2="512.0" /><line x1="771.5809523809523" x2="771.5809523809523" y1="0" y2="512.0" /><line x1="780.9904761904762" x2="780.9904761904762" y1="0" y2="512.0" /><line x1="790.4" x2="790.4" y1="0" y2="512.0" /><line x1="799.8095238095239" x2="799.8095238095239" y1="0" y2="512.0" /><line x1="809.2190476190476" x2="809.2190476190476" y1="0" y2="512.0" /><line x1="818.6285714285714" x2="818.6285714285714" y1="0" y2="512.0" /><line x1="828.0380952380953" x2="828.0380952380953" y1="0" y2="512.0" /><line x1="837.447619047619" x2="837.447619047619" y1="0" y2="512.0" /><line x1="856.2666666666667" x2="856.2666666666667" y1="0" y2="512.0" /><line x1="865.6761904761905" x2="865.6761904761905" y1="0" y2="512.0" /><line x1="875.0857142857143" x2="875.0857142857143" y1="0" y2="512.0" /><line x1="884.495238095238" x2="884.495238095238" y1="0" y2="512.0" /><line x1="893.9047619047619" x2="893.9047619047619" y1="0" y2="512.0" /><line x1="903.3142857142857" x2="903.3142857142857" y1="0" y2="512.0" /><line x1="912.7238095238096" x2="912.7238095238096" y1="0" y2="512.0" /><line x1="922.1333333333333" x2="922.1333333333333" y1="0" y2="512.0" /><line x1="931.5428571428571" x2="931.5428571428571" y1="0" y2="512.0" /><line x1="950.3619047619047" x2="950.3619047619047" y1="0" y2="512.0" /><line x1="959.7714285714286" x2="959.7714285714286" y1="0" y2="512.0" /><line x1="969.1809523809524" x2="969.1809523809524" y1="0" y2="512.0" /><line x1="978.5904761904762" x2="978.5904761904762" y1="0" y2="512.0" /><line x1="988.0" x2="988.0" y1="0" y2="512.0" /><line x1="997.4095238095238" x2="997.4095238095238" y1="0" y2="512.0" /><line x1="1006.8190476190476" x2="1006.8190476190476" y1="0" y2="512.0" /><line x1="1016.2285714285714" x2="1016.2285714285714" y1="0" y2="512.0" /><line x1="1025.6380952380953" x2="1025.6380952380953" y1="0" y2="512.0" /><line x1="1044.4571428571428" x2="1044.4571428571428" y1="0" y2="512.0" /><line x1="1053.8666666666666" x2="1053.8666666666666" y1="0" y2="512.0" /><line x1="1063.2761904761905" x2="1063.2761904761905" y1="0" y2="512.0" /><line x1="1072.6857142857143" x2="1072.6857142857143" y1="0" y2="512.0" /><line x1="1082.095238095238" x2="1082.095238095238" y1="0" y2="512.0" /><line x1="1091.5047619047618" x2="1091.5047619047618" y1="0" y2="512.0" /><line x1="1100.9142857142858" x2="1100.9142857142858" y1="0" y2="512.0" /><line x1="1110.3238095238096" x2="1110.3238095238096" y1="0" y2="512.0" /><line x1="1119.7333333333333" x2="1119.7333333333333" y1="0" y2="512.0" /><line x1="1138.5523809523809" x2="1138.5523809523809" y1="0" y2="512.0" /><line x1="1147.9619047619049" x2="1147.9619047619049" y1="0" y2="512.0" /><line x1="1157.3714285714286" x2="1157.3714285714286" y1="0" y2="512.0" /><line x1="1166.7809523809524" x2="1166.7809523809524" y1="0" y2="512.0" /><line x1="1176.1904761904761" x2="1176.1904761904761" y1="0" y2="512.0" /><line x1="1185.6" x2="1185.6" y1="0" y2="512.0" /><line x1="1195.009523809524" x2="1195.009523809524" y1="0" y2="512.0" /><line x1="1204.4190476190477" x2="1204.4190476190477" y1="0" y2="512.0" /><line x1="1213.8285714285714" x2="1213.8285714285714" y1="0" y2="512.0" /><line x1="1232.647619047619" x2="1232.647619047619" y1="0" y2="512.0" /><line x1="1242.057142857143" x2="1242.057142857143" y1="0" y2="512.0" /><line x1="1251.4666666666667" x2="1251.4666666666667" y1="0" y2="512.0" /><line x1="1260.8761904761905" x2="1260.8761904761905" y1="0" y2="512.0" /><line x1="1270.2857142857142" x2="1270.2857142857142" y1="0" y2="512.0" /><line x1="1279.695238095238" x2="1279.695238095238" y1="0" y2="512.0" /><line x1="1289.104761904762" x2="1289.104761904762" y1="0" y2="512.0" /><line x1="1298.5142857142857" x2="1298.5142857142857" y1="0" y2="512.0" /><line x1="1307.9238095238095" x2="1307.9238095238095" y1="0" y2="512.0" /><line x1="1326.7428571428572" x2="1326.7428571428572" y1="0" y2="512.0" /><line x1="1336.152380952381" x2="1336.152380952381" y1="0" y2="512.0" /><line x1="1345.5619047619048" x2="1345.5619047619048" y1="0" y2="512.0" /><line x1="1354.9714285714285" x2="1354.9714285714285" y1="0" y2="512.0" /><line x1="1364.3809523809523" x2="1364.3809523809523" y1="0" y2="512.0" /><line x1="1373.7904761904763" x2="1373.7904761904763" y1="0" y2="512.0" /><line x1="1383.2" x2="1383.2" y1="0" y2="512.0" /><line x1="1392.6095238095238" x2="1392.6095238095238" y1="0" y2="512.0" /><line x1="1402.0190476190476" x2="1402.0190476190476" y1="0" y2="512.0" /><line x1="1420.8380952380953" x2="1420.8380952380953" y1="0" y2="512.0" /><line x1="1430.247619047619" x2="1430.247619047619" y1="0" y2="512.0" /><line x1="1439.6571428571428" x2="1439.6571428571428" y1="0" y2="512.0" /><line x1="1449.0666666666666" x2="1449.0666666666666" y1="0" y2="512.0" /><line x1="1458.4761904761904" x2="1458.4761904761904" y1="0" y2="512.0" /><line x1="1467.8857142857144" x2="1467.8857142857144" y1="0" y2="512.0" /><line x1="1477.2952380952381" x2="1477.2952380952381" y1="0" y2="512.0" /><line x1="1486.7047619047619" x2="1486.7047619047619" y1="0" y2="512.0" /><line x1="1496.1142857142856" x2="1496.1142857142856" y1="0" y2="512.0" /><line x1="1514.9333333333334" x2="1514.9333333333334" y1="0" y2="512.0" /><line x1="1524.3428571428572" x2="1524.3428571428572" y1="0" y2="512.0" /><line x1="1533.752380952381" x2="1533.752380952381" y1="0" y2="512.0" /><line x1="1543.1619047619047" x2="1543.1619047619047" y1="0" y2="512.0" /><line x1="1552.5714285714287" x2="1552.5714285714287" y1="0" y2="512.0" /><line x1="1561.9809523809524" x2="1561.9809523809524" y1="0" y2="512.0" /><line x1="1571.3904761904762" x2="1571.3904761904762" y1="0" y2="512.0" /><line x1="1580.8" x2="1580.8" y1="0" y2="512.0" /><line x1="1590.2095238095237" x2="1590.2095238095237" y1="0" y2="512.0" /><line x1="1609.0285714285715" x2="1609.0285714285715" y1="0" y2="512.0" /><line x1="1618.4380952380952" x2="1618.4380952380952" y1="0" y2="512.0" /><line x1="1627.847619047619" x2="1627.847619047619" y1="0" y2="512.0" /><line x1="1637.2571428571428" x2="1637.2571428571428" y1="0" y2="512.0" /><line x1="1646.6666666666667" x2="1646.6666666666667" y1="0" y2="512.0" /><line x1="1656.0761904761905" x2="1656.0761904761905" y1="0" y2="512.0" /><line x1="1665.4857142857143" x2="1665.4857142857143" y1="0" y2="512.0" /><line x1="1674.895238095238" x2="1674.895238095238" y1="0" y2="512.0" /><line x1="1684.304761904762" x2="1684.304761904762" y1="0" y2="512.0" /><line x1="1703.1238095238095" x2="1703.1238095238095" y1="0" y2="512.0" /><line x1="1712.5333333333333" x2="1712.5333333333333" y1="0" y2="512.0" /><line x1="1721.942857142857" x2="1721.942857142857" y1="0" y2="512.0" /><line x1="1731.352380952381" x2="1731.352380952381" y1="0" y2="512.0" /><line x1="1740.7619047619048" x2="1740.7619047619048" y1="0" y2="512.0" /><line x1="1750.1714285714286" x2="1750.1714285714286" y1="0" y2="512.0" /><line x1="1759.5809523809523" x2="1759.5809523809523" y1="0" y2="512.0" /><line x1="1768.990476190476" x2="1768.990476190476" y1="0" y2="512.0" /><line x1="1778.4" x2="1778.4" y1="0" y2="512.0" /><line x1="1797.2190476190476" x2="1797.2190476190476" y1="0" y2="512.0" /><line x1="1806.6285714285714" x2="1806.6285714285714" y1="0" y2="512.0" /><line x1="1816.0380952380951" x2="1816.0380952380951" y1="0" y2="512.0" /><line x1="1825.4476190476191" x2="1825.4476190476191" y1="0" y2="512.0" /><line x1="1834.857142857143" x2="1834.857142857143" y1="0" y2="512.0" /><line x1="1844.2666666666667" x2="1844.2666666666667" y1="0" y2="512.0" /><line x1="1853.6761904761904" x2="1853.6761904761904" y1="0" y2="512.0" /><line x1="1863.0857142857142" x2="1863.0857142857142" y1="0" y2="512.0" /><line x1="1872.4952380952382" x2="1872.4952380952382" y1="0" y2="512.0" /><line x1="1891.3142857142857" x2="1891.3142857142857" y1="0" y2="512.0" /><line x1="1900.7238095238095" x2="1900.7238095238095" y1="0" y2="512.0" /><line x1="1910.1333333333334" x2="1910.1333333333334" y1="0" y2="512.0" /><line x1="1919.5428571428572" x2="1919.5428571428572" y1="0" y2="512.0" /><line x1="1928.952380952381" x2="1928.952380952381" y1="0" y2="512.0" /><line x1="1938.3619047619047" x2="1938.3619047619047" y1="0" y2="512.0" /><line x1="1947.7714285714285" x2="1947.7714285714285" y1="0" y2="512.0" /><line x1="1957.1809523809525" x2="1957.1809523809525" y1="0" y2="512.0" /><line x1="1966.5904761904762" x2="1966.5904761904762" y1="0" y2="512.0" /></g><g fill="black" font-family="Helvetica" font-size="12" font-weight="normal" style="font-style:normal;font-variant:normal;font-weight:normal;font-stretch:normal;font-size:12pt;font-family:'Helvetica';text-align:center;writing-mode" text-anchor="middle"><rect fill="white" height="17" width="32" x="-16.0" y="3" /><text x="0.0" y="16">0:00</text><rect fill="white" height="17" width="32" x="78.0952380952381" y="3" /><text x="94.0952380952381" y="16">0:10</text><rect fill="white" height="17" width="32" x="172.1904761904762" y="3" /><text x="188.1904761904762" y="16">0:20</text><rect fill="white" height="17" width="32" x="266.2857142857143" y="3" /><text x="282.2857142857143" y="16">0:30</text><rect fill="white" height="17" width="32" x="360.3809523809524" y="3" /><text x="376.3809523809524" y="16">0:40</text><rect fill="white" height="17" width="32" x="454.4761904761905" y="3" /><text x="470.4761904761905" y="16">0:50</text><rect fill="white" height="17" width="32" x="548.5714285714286" y="3" /><text x="564.5714285714286" y="16">1:00</text><rect fill="white" height="17" width="32" x="642.6666666666666" y="3" /><text x="658.6666666666666" y="16">1:10</text><rect fill="white" height="17" width="32" x="736.7619047619048" y="3" /><text x="752.7619047619048" y="16">1:20</text><rect fill="white" height="17" width="32" x="830.8571428571429" y="3" /><text x="846.8571428571429" y="16">1:30</text><rect fill="white" height="17" width="32" x="924.952380952381" y="3" /><text x="940.952380952381" y="16">1:40</text><rect fill="white" height="17" width="32" x="1019.047619047619" y="3" /><text x="1035.047619047619" y="16">1:50</text><rect fill="white" height="17" width="32" x="1113.142857142857" y="3" /><text x="1129.142857142857" y="16">2:00</text><rect fill="white" height="17" width="32" x="1207.2380952380952" y="3" /><text x="1223.2380952380952" y="16">2:10</text><rect fill="white" height="17" width="32" x="1301.3333333333333" y="3" /><text x="1317.3333333333333" y="16">2:20</text><rect fill="white" height="17" width="32" x="1395.4285714285713" y="3" /><text x="1411.4285714285713" y="16">2:30</text><rect fill="white" height="17" width="32" x="1489.5238095238096" y="3" /><text x="1505.5238095238096" y="16">2:40</text><rect fill="white" height="17" width="32" x="1583.6190476190477" y="3" /><text x="1599.6190476190477" y="16">2:50</text><rect fill="white" height="17" width="32" x="1677.7142857142858" y="3" /><text x="1693.7142857142858" y="16">3:00</text><rect fill="white" height="17" width="32" x="1771.8095238095239" y="3" /><text x="1787.8095238095239" y="16">3:10</text><rect fill="white" height="17" width="32" x="1865.904761904762" y="3" /><text x="1881.904761904762" y="16">3:20</text><rect fill="white" height="17" width="32" x="1960.0" y="3" /><text x="1976.0" y="16">3:30</text></g><g stroke="black" stroke-width="1"><polygon fill="rgb(179,96,95)" fill-opacity="0.5" points="132.85438988095237,84.25 144.7265625,48.0 192.8713467261905,48.0 164.6905580357143,84.25" /><polygon fill="rgb(179,96,95)" fill-opacity="0.25" points="2108.8543898809526,84.25 2120.7265625,48.0 2168.8713467261905,48.0 2140.6905580357143,84.25" stroke-opacity="0.25" /><polygon fill="rgb(96,155,95)" fill-opacity="0.5" points="164.69055803571425,84.25 192.87134672619047,48.0 303.0528273809524,48.0 270.928125,84.25" /><polygon fill="rgb(191,149,47)" fill-opacity="0.5" points="270.928125,84.25 303.0528273809524,48.0 498.8334077380952,48.0 399.7761160714286,84.25" /><polygon fill="rgb(191,96,65)" fill-opacity="0.5" points="399.7761160714286,84.25 498.8334077380952,48.0 600.3221056547619,48.0 528.8207514880952,84.25" /><polygon fill="rgb(161,191,47)" fill-opacity="0.5" points="528.8207514880953,84.25 600.3221056547619,48.0 764.0717113095238,48.0 741.4520982142857,84.25" /><polygon fill="rgb(191,96,92)" fill-opacity="0.5" points="741.4520982142857,84.25 764.0717113095238,48.0 850.2386904761905,48.0 815.2470238095239,84.25" /><polygon fill="rgb(191,167,47)" fill-opacity="0.5" points="815.2470238095239,84.25 850.2386904761905,48.0 953.6295089285716,48.0 890.6371577380953,84.25" /><polygon fill="rgb(161,191,47)" fill-opacity="0.5" points="890.6371577380951,84.25 953.6295089285715,48.0 1107.135230654762,48.0 1080.5790550595239,84.25" /><polygon fill="rgb(191,96,56)" fill-opacity="0.5" points="1080.5790550595239,84.25 1107.135230654762,48.0 1157.2611607142858,48.0 1148.0721726190477,84.25" /><polygon fill="rgb(96,137,95)" fill-opacity="0.5" points="1148.0721726190477,84.25 1157.2611607142858,48.0 1324.9951116071427,48.0 1267.3286979166667,84.25" /><polygon fill="rgb(143,191,47)" fill-opacity="0.5" points="1267.328697916667,84.25 1324.995111607143,48.0 1380.7428645833334,48.0 1348.0190401785712,84.25" /><polygon fill="rgb(143,191,47)" fill-opacity="0.5" points="1348.0190401785712,84.25 1380.7428645833334,48.0 1603.7393898809523,48.0 1463.7653720238097,84.25" /><polygon fill="rgb(179,96,95)" fill-opacity="0.5" points="1463.7653720238097,84.25 1603.7393898809523,48.0 1708.9036830357143,48.0 1669.1153645833333,84.25" /><polygon fill="rgb(179,96,95)" fill-opacity="0.5" points="1669.1153645833333,84.25 1708.9036830357143,48.0 1771.4347470238095,48.0 1724.2033482142858,84.25" /><polygon fill="rgb(191,167,47)" fill-opacity="0.5" points="1724.2033482142858,84.25 1771.4347470238095,48.0 1948.1867708333336,48.0 1895.6037053571429,84.25" /><polygon fill="rgb(191,96,83)" fill-opacity="0.5" points="1895.6037053571426,84.25 1948.1867708333332,48.0 1981.7486309523808,48.0 1970.2513690476187,84.25" /><polygon fill="rgb(96,102,95)" fill-opacity="0.5" points="1970.251369047619,84.25 1981.748630952381,48.0 2120.7265625,48.0 2108.8543898809526,84.25" /><polygon fill="rgb(96,102,95)" fill-opacity="0.25" points="-5.748630952381063,84.25 5.748630952381063,48.0 144.7265625,48.0 132.85438988095257,84.25" stroke-opacity="0.25" /><polygon fill="rgb(191,131,47)" fill-opacity="0.5" points="121.30199404761895,138.5 142.16467261904754,102.25 214.88081101190465,102.25 203.84299851190468,138.5" /><polygon fill="rgb(191,131,47)" fill-opacity="0.25" points="2097.301994047619,138.5 2118.1646726190475,102.25 2190.880811011905,102.25 2179.8429985119046,138.5" stroke-opacity="0.25" /><polygon fill="rgb(96,191,68)" fill-opacity="0.5" points="203.8429985119047,138.5 214.8808110119047,102.25 322.4636458333333,102.25 279.7458779761904,138.5" /><polygon fill="rgb(96,191,68)" fill-opacity="0.5" points="279.7458779761905,138.5 322.46364583333343,102.25 450.29717261904767,102.25 401.2647321428572,138.5" /><polygon fill="rgb(96,173,95)" fill-opacity="0.5" points="401.26473214285716,138.5 450.2971726190476,102.25 507.4839211309524,102.25 480.5160788690476,138.5" /><polygon fill="rgb(96,191,95)" fill-opacity="0.5" points="480.5160788690476,138.5 507.4839211309524,102.25 659.0562797619046,102.25 648.8675297619047,138.5" /><polygon fill="rgb(191,96,92)" fill-opacity="0.5" points="648.8675297619048,138.5 659.0562797619048,102.25 715.0944047619048,102.25 677.515119047619,138.5" /><polygon fill="rgb(96,191,59)" fill-opacity="0.5" points="677.515119047619,138.5 715.0944047619048,102.25 880.356517857143,102.25 832.1768154761905,138.5" /><polygon fill="rgb(191,96,65)" fill-opacity="0.5" points="832.1768154761903,138.5 880.3565178571429,102.25 1004.7937946428572,102.25 980.6157291666666,138.5" /><polygon fill="rgb(191,114,47)" fill-opacity="0.5" points="980.6157291666666,138.5 1004.7937946428572,102.25 1084.4476190476191,102.25 1023.2857142857143,138.5" /><polygon fill="rgb(126,96,95)" fill-opacity="0.5" points="1023.2857142857143,138.5 1084.4476190476191,102.25 1222.9513988095237,102.25 1204.705744047619,138.5" /><polygon fill="rgb(96,191,95)" fill-opacity="0.5" points="1204.7057440476192,138.5 1222.951398809524,102.25 1417.4749255952381,102.25 1339.515550595238,138.5" /><polygon fill="rgb(143,96,95)" fill-opacity="0.5" points="1339.515550595238,138.5 1417.4749255952381,102.25 1511.1934151785715,102.25 1443.3970610119047,138.5" /><polygon fill="rgb(191,96,65)" fill-opacity="0.5" points="1443.3970610119047,138.5 1511.1934151785715,102.25 1559.5054389880954,102.25 1540.9326562499998,138.5" /><polygon fill="rgb(191,167,47)" fill-opacity="0.5" points="1540.9326562499998,138.5 1559.5054389880954,102.25 1742.7209970238096,102.25 1696.4599553571427,138.5" /><polygon fill="rgb(191,96,74)" fill-opacity="0.5" points="1696.4599553571427,138.5 1742.7209970238096,102.25 1827.4379538690475,102.25 1757.5906175595235,138.5" /><polygon fill="rgb(161,96,95)" fill-opacity="0.5" points="1757.5906175595237,138.5 1827.4379538690478,102.25 1908.3322916666666,102.25 1879.0010416666667,138.5" /><polygon fill="rgb(191,149,47)" fill-opacity="0.5" points="1879.0010416666667,138.5 1908.3322916666666,102.25 2039.0879166666668,102.25 1945.8454166666666,138.5" /><polygon fill="rgb(191,96,74)" fill-opacity="0.5" points="1945.8454166666666,138.5 2039.0879166666668,102.25 2118.1646726190475,102.25 2097.301994047619,138.5" /><polygon fill="rgb(191,96,74)" fill-opacity="0.25" points="-30.15458333333345,138.5 63.08791666666684,102.25 142.16467261904745,102.25 121.30199404761879,138.5" stroke-opacity="0.25" /><polygon fill="rgb(96,191,77)" fill-opacity="0.5" points="14.51860119047619,192.75 27.824255952380952,156.5 122.58110119047619,156.5 107.95223214285714,192.75" /><polygon fill="rgb(96,191,77)" fill-opacity="0.25" points="1990.5186011904761,192.75 2003.824255952381,156.5 2098.581101190476,156.5 2083.952232142857,192.75" stroke-opacity="0.25" /><polygon fill="rgb(96,191,59)" fill-opacity="0.5" points="107.95223214285714,192.75 122.58110119047619,156.5 178.56041666666667,156.5 146.06815476190476,192.75" /><polygon fill="rgb(191,131,47)" fill-opacity="0.5" points="146.06815476190476,192.75 178.56041666666667,156.5 354.5295386904762,156.5 337.0704613095238,192.75" /><polygon fill="rgb(191,131,47)" fill-opacity="0.5" points="337.0704613095238,192.75 354.5295386904762,156.5 430.2927455357143,156.5 378.9263020833333,192.75" /><polygon fill="rgb(191,185,47)" fill-opacity="0.5" points="378.9263020833333,192.75 430.2927455357143,156.5 495.80104166666666,156.5 482.7894345238095,192.75" /><polygon fill="rgb(126,96,95)" fill-opacity="0.5" points="482.7894345238095,192.75 495.80104166666666,156.5 567.2086681547619,156.5 552.5246651785715,192.75" /><polygon fill="rgb(191,96,92)" fill-opacity="0.5" points="552.5246651785715,192.75 567.2086681547619,156.5 612.5416220238095,156.5 587.172663690476,192.75" /><polygon fill="rgb(96,173,95)" fill-opacity="0.5" points="587.1726636904759,192.75 612.5416220238094,156.5 778.7796056547617,156.5 754.9727752976189,192.75" /><polygon fill="rgb(191,96,74)" fill-opacity="0.5" points="754.9727752976189,192.75 778.7796056547617,156.5 916.7982068452378,156.5 856.8970312499998,192.75" /><polygon fill="rgb(96,191,86)" fill-opacity="0.5" points="856.8970312499998,192.75 916.7982068452378,156.5 996.2406845238093,156.5 979.7593154761902,192.75" /><polygon fill="rgb(96,137,95)" fill-opacity="0.5" points="979.7593154761904,192.75 996.2406845238096,156.5 1120.8286607142857,156.5 1033.9522916666667,192.75" /><polygon fill="rgb(191,96,74)" fill-opacity="0.5" points="1033.9522916666667,192.75 1120.8286607142857,156.5 1259.39125,156.5 1252.9516071428573,192.75" /><polygon fill="rgb(96,137,95)" fill-opacity="0.5" points="1252.9516071428573,192.75 1259.39125,156.5 1320.2150000000001,156.5 1305.0421428571428,192.75" /><polygon fill="rgb(96,191,77)" fill-opacity="0.5" points="1305.0421428571428,192.75 1320.2150000000001,156.5 1475.089880952381,156.5 1446.5672619047618,192.75" /><polygon fill="rgb(191,96,56)" fill-opacity="0.5" points="1446.5672619047618,192.75 1475.089880952381,156.5 1522.4683035714286,156.5 1493.2840773809523,192.75" /><polygon fill="rgb(96,191,95)" fill-opacity="0.5" points="1493.2840773809523,192.75 1522.4683035714286,156.5 1710.0633333333335,156.5 1620.9080952380953,192.75" /><polygon fill="rgb(108,96,95)" fill-opacity="0.5" points="1620.908095238095,192.75 1710.0633333333333,156.5 1827.4563318452379,156.5 1804.619858630952,192.75" /><polygon fill="rgb(191,185,47)" fill-opacity="0.5" points="1804.6198586309522,192.75 1827.4563318452383,156.5 1969.016369047619,156.5 1931.23125,192.75" /><polygon fill="rgb(191,96,92)" fill-opacity="0.5" points="1931.23125,192.75 1969.016369047619,156.5 2003.824255952381,156.5 1990.5186011904761,192.75" /><polygon fill="rgb(191,96,92)" fill-opacity="0.25" points="-44.768749999999955,192.75 -6.983630952380963,156.5 27.82425595238101,156.5 14.518601190476147,192.75" stroke-opacity="0.25" /><polygon fill="rgb(96,173,95)" fill-opacity="0.5" points="52.708035714285714,247.0 163.7110119047619,210.75 256.9094047619048,210.75 194.7477380952381,247.0" /><polygon fill="rgb(96,173,95)" fill-opacity="0.25" points="2028.7080357142856,247.0 2139.711011904762,210.75 2232.9094047619046,210.75 2170.747738095238,247.0" stroke-opacity="0.25" /><polygon fill="rgb(96,173,95)" fill-opacity="0.5" points="194.74773809523813,247.0 256.90940476190485,210.75 301.00919642857144,210.75 282.3812797619048,247.0" /><polygon fill="rgb(143,191,47)" fill-opacity="0.5" points="282.3812797619047,247.0 301.0091964285714,210.75 490.97866071428564,210.75 459.38324404761903,247.0" /><polygon fill="rgb(191,96,92)" fill-opacity="0.5" points="459.383244047619,247.0 490.9786607142856,210.75 550.8247023809522,210.75 531.2705357142855,247.0" /><polygon fill="rgb(191,149,47)" fill-opacity="0.5" points="531.2705357142858,247.0 550.8247023809524,210.75 655.3714955357142,210.75 638.4380282738096,247.0" /><polygon fill="rgb(161,96,95)" fill-opacity="0.5" points="638.4380282738093,247.0 655.3714955357141,210.75 694.5184226190474,210.75 679.2720535714283,247.0" /><polygon fill="rgb(96,191,77)" fill-opacity="0.5" points="679.2720535714287,247.0 694.5184226190479,210.75 916.171517857143,210.75 829.2951488095241,247.0" /><polygon fill="rgb(108,191,47)" fill-opacity="0.5" points="829.2951488095238,247.0 916.1715178571427,210.75 977.9068154761904,210.75 946.3408035714284,247.0" /><polygon fill="rgb(191,149,47)" fill-opacity="0.5" points="946.3408035714288,247.0 977.9068154761907,210.75 1079.7575595238097,210.75 1042.0900595238097,247.0" /><polygon fill="rgb(96,173,95)" fill-opacity="0.5" points="1042.0900595238097,247.0 1079.7575595238097,210.75 1240.585066964286,210.75 1210.5958854166668,247.0" /><polygon fill="rgb(191,96,74)" fill-opacity="0.5" points="1210.5958854166668,247.0 1240.585066964286,210.75 1366.871168154762,210.75 1277.2050223214285,247.0" /><polygon fill="rgb(191,96,47)" fill-opacity="0.5" points="1277.2050223214285,247.0 1366.871168154762,210.75 1501.9033482142856,210.75 1462.0966517857144,247.0" /><polygon fill="rgb(161,96,95)" fill-opacity="0.5" points="1462.0966517857144,247.0 1501.9033482142856,210.75 1586.864732142857,210.75 1518.278125,247.0" /><polygon fill="rgb(96,173,95)" fill-opacity="0.5" points="1518.278125,247.0 1586.864732142857,210.75 1664.7597842261905,210.75 1614.459263392857,247.0" /><polygon fill="rgb(191,96,47)" fill-opacity="0.5" points="1614.459263392857,247.0 1664.7597842261905,210.75 1712.397336309524,210.75 1675.0312351190478,247.0" /><polygon fill="rgb(191,185,47)" fill-opacity="0.5" points="1675.0312351190473,247.0 1712.3973363095238,210.75 1894.0452529761903,210.75 1850.9452232142855,247.0" /><polygon fill="rgb(108,191,47)" fill-opacity="0.5" points="1850.9452232142855,247.0 1894.0452529761903,210.75 1953.9170238095237,210.75 1913.3972619047618,247.0" /><polygon fill="rgb(96,191,86)" fill-opacity="0.5" points="1913.3972619047622,247.0 1953.917023809524,210.75 2139.711011904762,210.75 2028.7080357142856,247.0" /><polygon fill="rgb(96,191,86)" fill-opacity="0.25" points="-62.60273809523778,247.0 -22.082976190476074,210.75 163.71101190476202,210.75 52.70803571428564,247.0" stroke-opacity="0.25" /><polygon fill="rgb(96,191,95)" fill-opacity="0.5" points="57.21431547619043,301.25 83.92854166666662,265.0 149.0656026785714,265.0 100.28677827380947,301.25" /><polygon fill="rgb(96,191,95)" fill-opacity="0.25" points="2033.2143154761904,301.25 2059.9285416666667,265.0 2125.0656026785714,265.0 2076.2867782738094,301.25" stroke-opacity="0.25" /><polygon fill="rgb(96,191,95)" fill-opacity="0.5" points="100.28677827380942,301.25 149.06560267857134,265.0 303.76956845238084,265.0 270.2113839285713,301.25" /><polygon fill="rgb(191,96,74)" fill-opacity="0.5" points="270.2113839285714,301.25 303.76956845238095,265.0 353.70252976190477,265.0 323.7831845238095,301.25" /><polygon fill="rgb(96,191,95)" fill-opacity="0.5" points="323.7831845238095,301.25 353.70252976190477,265.0 503.03093750000005,265.0 395.5785863095238,301.25" /><polygon fill="rgb(96,191,59)" fill-opacity="0.5" points="395.57858630952387,301.25 503.0309375000001,265.0 662.728199404762,265.0 565.2146577380954,301.25" /><polygon fill="rgb(179,96,95)" fill-opacity="0.5" points="565.2146577380952,301.25 662.7281994047619,265.0 852.344806547619,265.0 733.159955357143,301.25" /><polygon fill="rgb(179,191,47)" fill-opacity="0.5" points="733.1599553571427,301.25 852.3448065476189,265.0 989.2956473214284,265.0 887.9043526785713,301.25" /><polygon fill="rgb(96,191,59)" fill-opacity="0.5" points="887.9043526785714,301.25 989.2956473214285,265.0 1069.5173511904761,265.0 1019.3969345238096,301.25" /><polygon fill="rgb(96,120,95)" fill-opacity="0.5" points="1019.3969345238095,301.25 1069.517351190476,265.0 1143.2571428571428,265.0 1077.390476190476,301.25" /><polygon fill="rgb(191,149,47)" fill-opacity="0.5" points="1077.3904761904762,301.25 1143.2571428571428,265.0 1264.7484300595238,265.0 1233.4801413690477,301.25" /><polygon fill="rgb(96,191,68)" fill-opacity="0.5" points="1233.4801413690475,301.25 1264.7484300595233,265.0 1394.667857142857,265.0 1324.6845238095236,301.25" /><polygon fill="rgb(179,191,47)" fill-opacity="0.5" points="1324.6845238095239,301.25 1394.6678571428572,265.0 1467.297619047619,265.0 1402.607142857143,301.25" /><polygon fill="rgb(96,191,86)" fill-opacity="0.5" points="1402.607142857143,301.25 1467.297619047619,265.0 1576.095238095238,265.0 1482.0,301.25" /><polygon fill="rgb(96,120,95)" fill-opacity="0.5" points="1482.0,301.25 1576.095238095238,265.0 1759.8327306547617,265.0 1646.4148883928572,301.25" /><polygon fill="rgb(96,102,95)" fill-opacity="0.5" points="1646.414888392857,301.25 1759.8327306547615,265.0 1866.5315848214284,265.0 1817.2969866071426,301.25" /><polygon fill="rgb(96,137,95)" fill-opacity="0.5" points="1817.2969866071428,301.25 1866.5315848214286,265.0 1997.888169642857,265.0 1954.111830357143,301.25" /><polygon fill="rgb(191,96,65)" fill-opacity="0.5" points="1954.111830357143,301.25 1997.888169642857,265.0 2059.9285416666667,265.0 2033.2143154761904,301.25" /><polygon fill="rgb(191,96,65)" fill-opacity="0.25" points="-21.888169642857065,301.25 21.888169642857065,265.0 83.92854166666666,265.0 57.21431547619045,301.25" stroke-opacity="0.25" /><polygon fill="rgb(96,191,68)" fill-opacity="0.5" points="466.4183333333336,355.5 521.5816666666668,319.25 641.3619642857145,319.25 572.4666071428572,355.5" /><polygon fill="rgb(96,191,68)" fill-opacity="0.25" points="2442.4183333333335,355.5 2497.581666666667,319.25 2617.3619642857147,319.25 2548.4666071428574,355.5" stroke-opacity="0.25" /><polygon fill="rgb(191,96,56)" fill-opacity="0.5" points="572.4666071428572,355.5 641.3619642857145,319.25 692.7908928571429,319.25 676.2948214285715,355.5" /><polygon fill="rgb(191,131,47)" fill-opacity="0.5" points="676.2948214285716,355.5 692.7908928571431,319.25 794.560773809524,319.25 762.7154166666668,355.5" /><polygon fill="rgb(191,149,47)" fill-opacity="0.5" points="762.7154166666668,355.5 794.560773809524,319.25 839.5059523809525,319.25 830.684523809524,355.5" /><polygon fill="rgb(191,131,47)" fill-opacity="0.5" points="830.6845238095239,355.5 839.5059523809524,319.25 939.8827827380953,319.25 890.2695982142858,355.5" /><polygon fill="rgb(161,96,95)" fill-opacity="0.5" points="890.2695982142859,355.5 939.8827827380954,319.25 1130.4568824404764,319.25 1005.5050223214289,355.5" /><polygon fill="rgb(96,102,95)" fill-opacity="0.5" points="1005.5050223214286,355.5 1130.4568824404762,319.25 1253.3669494047617,319.25 1230.7473363095237,355.5" /><polygon fill="rgb(191,96,47)" fill-opacity="0.5" points="1230.747336309524,355.5 1253.366949404762,319.25 1335.5973660714287,319.25 1308.4788244047618,355.5" /><polygon fill="rgb(191,149,47)" fill-opacity="0.5" points="1308.478824404762,355.5 1335.597366071429,319.25 1460.295610119048,319.25 1428.4281994047622,355.5" /><polygon fill="rgb(191,131,47)" fill-opacity="0.5" points="1428.428199404762,355.5 1460.2956101190475,319.25 1530.0620833333332,319.25 1499.8045833333335,355.5" /><polygon fill="rgb(126,191,47)" fill-opacity="0.5" points="1499.804583333333,355.5 1530.062083333333,319.25 1584.1374404761905,319.25 1558.6435119047617,355.5" /><polygon fill="rgb(96,155,95)" fill-opacity="0.5" points="1558.6435119047617,355.5 1584.1374404761905,319.25 1734.5758779761902,319.25 1676.3765029761905,355.5" /><polygon fill="rgb(108,191,47)" fill-opacity="0.5" points="1676.3765029761907,355.5 1734.5758779761904,319.25 1824.3835342261907,319.25 1770.0545610119048,355.5" /><polygon fill="rgb(108,96,95)" fill-opacity="0.5" points="1770.0545610119045,355.5 1824.3835342261905,319.25 2011.8885119047618,319.25 1874.244821428571,355.5" /><polygon fill="rgb(96,102,95)" fill-opacity="0.5" points="1874.2448214285716,355.5 2011.8885119047623,319.25 2156.030654761905,319.25 2078.25505952381,355.5" /><polygon fill="rgb(96,155,95)" fill-opacity="0.5" points="2078.2550595238095,355.5 2156.0306547619048,319.25 2235.3279464285715,319.25 2215.3768154761906,355.5" /><polygon fill="rgb(161,191,47)" fill-opacity="0.5" points="2215.3768154761906,355.5 2235.327946428572,319.25 2426.539761904762,319.25 2362.9078571428577,355.5" /><polygon fill="rgb(143,96,95)" fill-opacity="0.5" points="2362.9078571428568,355.5 2426.5397619047617,319.25 2497.581666666666,319.25 2442.418333333333,355.5" /><polygon fill="rgb(143,96,95)" fill-opacity="0.25" points="386.90785714285676,355.5 450.5397619047617,319.25 521.581666666666,319.25 466.41833333333307,355.5" stroke-opacity="0.25" /><polygon fill="rgb(126,96,95)" fill-opacity="0.5" points="984.140625,409.75 991.859375,373.5 1054.11109375,373.5 1020.6889062500001,409.75" /><polygon fill="rgb(126,96,95)" fill-opacity="0.25" points="2960.140625,409.75 2967.859375,373.5 3030.11109375,373.5 2996.68890625,409.75" stroke-opacity="0.25" /><polygon fill="rgb(161,96,95)" fill-opacity="0.5" points="1020.6889062500002,409.75 1054.1110937500002,373.5 1210.097842261905,373.5 1146.9878720238098,409.75" /><polygon fill="rgb(191,96,83)" fill-opacity="0.5" points="1146.9878720238096,409.75 1210.0978422619048,373.5 1280.5185714285715,373.5 1236.5290476190476,409.75" /><polygon fill="rgb(96,191,77)" fill-opacity="0.5" points="1236.5290476190478,409.75 1280.5185714285717,373.5 1463.1809523809527,373.5 1326.7428571428575,409.75" /><polygon fill="rgb(191,131,47)" fill-opacity="0.5" points="1326.7428571428572,409.75 1463.1809523809525,373.5 1585.4735193452382,373.5 1533.7836235119046,409.75" /><polygon fill="rgb(191,96,92)" fill-opacity="0.5" points="1533.783623511905,409.75 1585.4735193452384,373.5 1672.3498883928573,373.5 1639.8024925595241,409.75" /><polygon fill="rgb(161,191,47)" fill-opacity="0.5" points="1639.802492559524,409.75 1672.349888392857,373.5 1747.6720238095238,373.5 1729.1470238095237,409.75" /><polygon fill="rgb(96,191,59)" fill-opacity="0.5" points="1729.1470238095237,409.75 1747.6720238095238,373.5 1789.7171577380952,373.5 1771.7876041666666,409.75" /><polygon fill="rgb(108,191,47)" fill-opacity="0.5" points="1771.7876041666668,409.75 1789.7171577380957,373.5 1929.2611309523813,373.5 1895.7102976190479,409.75" /><polygon fill="rgb(191,96,65)" fill-opacity="0.5" points="1895.7102976190479,409.75 1929.2611309523813,373.5 2107.3290178571433,373.5 1999.9281250000004,409.75" /><polygon fill="rgb(191,96,47)" fill-opacity="0.5" points="1999.928125,409.75 2107.329017857143,373.5 2223.319776785714,373.5 2194.451651785714,409.75" /><polygon fill="rgb(96,102,95)" fill-opacity="0.5" points="2194.4516517857146,409.75 2223.3197767857146,373.5 2347.920617559524,373.5 2309.7936681547617,409.75" /><polygon fill="rgb(108,96,95)" fill-opacity="0.5" points="2309.793668154762,409.75 2347.920617559524,373.5 2395.93859375,373.5 2369.9852157738096,409.75" /><polygon fill="rgb(126,191,47)" fill-opacity="0.5" points="2369.985215773809,409.75 2395.93859375,373.5 2515.7905654761907,373.5 2428.9141964285714,409.75" /><polygon fill="rgb(191,96,74)" fill-opacity="0.5" points="2428.9141964285714,409.75 2515.7905654761907,373.5 2639.4963988095233,373.5 2587.494077380952,409.75" /><polygon fill="rgb(108,191,47)" fill-opacity="0.5" points="2587.4940773809526,409.75 2639.4963988095237,373.5 2770.990818452381,373.5 2710.0568005952387,409.75" /><polygon fill="rgb(191,96,47)" fill-opacity="0.5" points="2710.0568005952387,409.75 2770.990818452381,373.5 2897.2254613095242,373.5 2856.6983482142855,409.75" /><polygon fill="rgb(191,149,47)" fill-opacity="0.5" points="2856.698348214286,409.75 2897.2254613095247,373.5 2967.8593750000005,373.5 2960.1406250000005,409.75" /><polygon fill="rgb(191,149,47)" fill-opacity="0.25" points="880.6983482142859,409.75 921.2254613095247,373.5 991.8593750000005,373.5 984.1406250000005,409.75" stroke-opacity="0.25" /><polygon fill="rgb(191,96,83)" fill-opacity="0.5" points="1457.8219345238092,464.0 1506.1780654761903,427.75 1660.5126339285712,427.75 1628.1159375,464.0" /><polygon fill="rgb(191,96,83)" fill-opacity="0.25" points="3433.8219345238094,464.0 3482.1780654761906,427.75 3636.512633928571,427.75 3604.1159374999997,464.0" stroke-opacity="0.25" /><polygon fill="rgb(191,149,47)" fill-opacity="0.5" points="1628.1159375000002,464.0 1660.5126339285714,427.75 1766.4469642857146,427.75 1705.6673214285715,464.0" /><polygon fill="rgb(126,191,47)" fill-opacity="0.5" points="1705.6673214285713,464.0 1766.4469642857143,427.75 1883.3088392857142,427.75 1795.8149702380952,464.0" /><polygon fill="rgb(96,191,77)" fill-opacity="0.5" points="1795.8149702380954,464.0 1883.3088392857144,427.75 2045.187566964286,427.75 1977.3838616071432,464.0" /><polygon fill="rgb(191,96,47)" fill-opacity="0.5" points="1977.3838616071428,464.0 2045.1875669642852,427.75 2117.903705357143,427.75 2059.9248660714284,464.0" /><polygon fill="rgb(191,185,47)" fill-opacity="0.5" points="2059.924866071429,464.0 2117.903705357143,427.75 2256.870610119048,427.75 2193.8341517857143,464.0" /><polygon fill="rgb(108,191,47)" fill-opacity="0.5" points="2193.8341517857143,464.0 2256.870610119048,427.75 2381.859226190476,427.75 2304.083630952381,464.0" /><polygon fill="rgb(143,191,47)" fill-opacity="0.5" points="2304.083630952381,464.0 2381.859226190476,427.75 2458.539494047619,427.75 2443.822410714286,464.0" /><polygon fill="rgb(191,96,47)" fill-opacity="0.5" points="2443.822410714286,464.0 2458.539494047619,427.75 2571.6853422619047,427.75 2537.686086309524,464.0" /><polygon fill="rgb(191,96,74)" fill-opacity="0.5" points="2537.686086309524,464.0 2571.6853422619047,427.75 2633.4904761904763,427.75 2593.5,464.0" /><polygon fill="rgb(96,191,59)" fill-opacity="0.5" points="2593.5,464.0 2633.4904761904763,427.75 2665.045461309524,427.75 2641.9259672619046,464.0" /><polygon fill="rgb(96,120,95)" fill-opacity="0.5" points="2641.9259672619046,464.0 2665.045461309524,427.75 2764.2497767857144,427.75 2707.388318452381,464.0" /><polygon fill="rgb(191,96,92)" fill-opacity="0.5" points="2707.388318452381,464.0 2764.2497767857144,427.75 2831.3385788690475,427.75 2819.08046875,464.0" /><polygon fill="rgb(96,155,95)" fill-opacity="0.5" points="2819.08046875,464.0 2831.3385788690475,427.75 2889.247581845238,427.75 2869.3809895833333,464.0" /><polygon fill="rgb(161,191,47)" fill-opacity="0.5" points="2869.3809895833333,464.0 2889.247581845238,427.75 3049.0569494047622,427.75 2982.4478125,464.0" /><polygon fill="rgb(191,131,47)" fill-opacity="0.5" points="2982.4478124999996,464.0 3049.056949404762,427.75 3158.389367559523,427.75 3066.010632440476,464.0" /><polygon fill="rgb(191,96,83)" fill-opacity="0.5" points="3066.0106324404765,464.0 3158.389367559524,427.75 3241.9521875000005,427.75 3175.3430505952383,464.0" /><polygon fill="rgb(191,96,83)" fill-opacity="0.5" points="3175.343050595238,464.0 3241.9521875,427.75 3374.4757738095236,427.75 3296.8766071428568,464.0" /><polygon fill="rgb(161,191,47)" fill-opacity="0.5" points="3296.8766071428568,464.0 3374.4757738095236,427.75 3482.17806547619,427.75 3433.8219345238085,464.0" /><polygon fill="rgb(161,191,47)" fill-opacity="0.25" points="1320.8766071428568,464.0 1398.4757738095236,427.75 1506.17806547619,427.75 1457.8219345238085,464.0" stroke-opacity="0.25" /></g><g fill="black" font-family="Helvetica" font-size="14" font-weight="bold" text-anchor="middle"><text x="154.70856026785714" y="62.0">58</text><text x="154.70856026785714" y="76.0">19</text><text x="154.70856026785714" y="90.0">36</text><text x="154.70856026785714" y="104.0">62</text><text x="154.70856026785714" y="118.0">12</text><text x="154.70856026785714" y="132.0">47</text><text x="154.70856026785714" y="146.0">51</text><text x="154.70856026785714" y="160.0">6</text><text x="231.89973586309526" y="62.0">18</text><text x="231.89973586309526" y="76.0">24</text><text x="231.89973586309526" y="90.0">35</text><text x="231.89973586309526" y="104.0">48</text><text x="231.89973586309526" y="118.0">46</text><text x="231.89973586309526" y="132.0">16</text><text x="231.89973586309526" y="146.0">36</text><text x="231.89973586309526" y="160.0">50</text><text x="351.4144717261905" y="62.0">3</text><text x="351.4144717261905" y="76.0">51</text><text x="351.4144717261905" y="90.0">33</text><text x="351.4144717261905" y="104.0">34</text><text x="351.4144717261905" y="118.0">45</text><text x="351.4144717261905" y="132.0">33</text><text x="351.4144717261905" y="146.0">2</text><text x="351.4144717261905" y="160.0">54</text><text x="513.8270796130952" y="62.0">30</text><text x="513.8270796130952" y="76.0">38</text><text x="513.8270796130952" y="90.0">15</text><text x="513.8270796130952" y="104.0">9</text><text x="513.8270796130952" y="118.0">19</text><text x="513.8270796130952" y="132.0">32</text><text x="513.8270796130952" y="146.0">49</text><text x="513.8270796130952" y="160.0">46</text><text x="670.8871019345238" y="62.0">7</text><text x="670.8871019345238" y="76.0">33</text><text x="670.8871019345238" y="90.0">25</text><text x="670.8871019345238" y="104.0">49</text><text x="670.8871019345238" y="118.0">44</text><text x="670.8871019345238" y="132.0">46</text><text x="670.8871019345238" y="146.0">58</text><text x="670.8871019345238" y="160.0">46</text><text x="789.6593675595238" y="62.0">59</text><text x="789.6593675595238" y="76.0">34</text><text x="789.6593675595238" y="90.0">19</text><text x="789.6593675595238" y="104.0">49</text><text x="789.6593675595238" y="118.0">63</text><text x="789.6593675595238" y="132.0">60</text><text x="789.6593675595238" y="146.0">30</text><text x="789.6593675595238" y="160.0">30</text><text x="870.4379241071429" y="62.0">4</text><text x="870.4379241071429" y="76.0">61</text><text x="870.4379241071429" y="90.0">40</text><text x="870.4379241071429" y="104.0">19</text><text x="870.4379241071429" y="118.0">8</text><text x="870.4379241071429" y="132.0">39</text><text x="870.4379241071429" y="146.0">52</text><text x="870.4379241071429" y="160.0">31</text><text x="1017.1042819940476" y="62.0">39</text><text x="1017.1042819940476" y="76.0">34</text><text x="1017.1042819940476" y="90.0">12</text><text x="1017.1042819940476" y="104.0">9</text><text x="1017.1042819940476" y="118.0">41</text><text x="1017.1042819940476" y="132.0">52</text><text x="1017.1042819940476" y="146.0">18</text><text x="1017.1042819940476" y="160.0">56</text><text x="1127.6037016369048" y="62.0">31</text><text x="1127.6037016369048" y="76.0">52</text><text x="1127.6037016369048" y="90.0">42</text><text x="1127.6037016369048" y="104.0">30</text><text x="1127.6037016369048" y="118.0">4</text><text x="1127.6037016369048" y="132.0">25</text><text x="1127.6037016369048" y="146.0">20</text><text x="1127.6037016369048" y="160.0">11</text><text x="1212.294929315476" y="62.0">19</text><text x="1212.294929315476" y="76.0">41</text><text x="1212.294929315476" y="90.0">12</text><text x="1212.294929315476" y="104.0">27</text><text x="1212.294929315476" y="118.0">27</text><text x="1212.294929315476" y="132.0">54</text><text x="1212.294929315476" y="146.0">51</text><text x="1212.294929315476" y="160.0">16</text><text x="1336.507075892857" y="62.0">8</text><text x="1336.507075892857" y="76.0">29</text><text x="1336.507075892857" y="90.0">11</text><text x="1336.507075892857" y="104.0">11</text><text x="1336.507075892857" y="118.0">10</text><text x="1336.507075892857" y="132.0">53</text><text x="1336.507075892857" y="146.0">56</text><text x="1336.507075892857" y="160.0">2</text><text x="1422.2541183035714" y="62.0">8</text><text x="1422.2541183035714" y="76.0">54</text><text x="1422.2541183035714" y="90.0">41</text><text x="1422.2541183035714" y="104.0">2</text><text x="1422.2541183035714" y="118.0">29</text><text x="1422.2541183035714" y="132.0">34</text><text x="1422.2541183035714" y="146.0">6</text><text x="1422.2541183035714" y="160.0">60</text><text x="1636.4273772321428" y="62.0">26</text><text x="1636.4273772321428" y="76.0">10</text><text x="1636.4273772321428" y="90.0">16</text><text x="1636.4273772321428" y="104.0">22</text><text x="1636.4273772321428" y="118.0">36</text><text x="1636.4273772321428" y="132.0">7</text><text x="1636.4273772321428" y="146.0">8</text><text x="1636.4273772321428" y="160.0">30</text><text x="1716.553515625" y="62.0">26</text><text x="1716.553515625" y="76.0">38</text><text x="1716.553515625" y="90.0">11</text><text x="1716.553515625" y="104.0">61</text><text x="1716.553515625" y="118.0">26</text><text x="1716.553515625" y="132.0">22</text><text x="1716.553515625" y="146.0">45</text><text x="1716.553515625" y="160.0">45</text><text x="1833.5192261904763" y="62.0">36</text><text x="1833.5192261904763" y="76.0">14</text><text x="1833.5192261904763" y="90.0">27</text><text x="1833.5192261904763" y="104.0">31</text><text x="1833.5192261904763" y="118.0">34</text><text x="1833.5192261904763" y="132.0">8</text><text x="1833.5192261904763" y="146.0">8</text><text x="1833.5192261904763" y="160.0">3</text><text x="1959.219069940476" y="62.0">28</text><text x="1959.219069940476" y="76.0">6</text><text x="1959.219069940476" y="90.0">53</text><text x="1959.219069940476" y="104.0">19</text><text x="1959.219069940476" y="118.0">24</text><text x="1959.219069940476" y="132.0">58</text><text x="1959.219069940476" y="146.0">20</text><text x="1959.219069940476" y="160.0">26</text><text x="2045.3015104166668" y="62.0">21</text><text x="2045.3015104166668" y="76.0">42</text><text x="2045.3015104166668" y="90.0">50</text><text x="2045.3015104166668" y="104.0">23</text><text x="2045.3015104166668" y="118.0">55</text><text x="2045.3015104166668" y="132.0">17</text><text x="2045.3015104166668" y="146.0">28</text><text x="2045.3015104166668" y="160.0">40</text><text x="173.0038355654761" y="116.25">2</text><text x="173.0038355654761" y="130.25">42</text><text x="173.0038355654761" y="144.25">49</text><text x="173.0038355654761" y="158.25">49</text><text x="173.0038355654761" y="172.25">37</text><text x="173.0038355654761" y="186.25">48</text><text x="173.0038355654761" y="200.25">54</text><text x="173.0038355654761" y="214.25">8</text><text x="247.31334449404756" y="116.25">45</text><text x="247.31334449404756" y="130.25">27</text><text x="247.31334449404756" y="144.25">46</text><text x="247.31334449404756" y="158.25">8</text><text x="247.31334449404756" y="172.25">53</text><text x="247.31334449404756" y="186.25">35</text><text x="247.31334449404756" y="200.25">18</text><text x="247.31334449404756" y="214.25">16</text><text x="361.8641889880953" y="116.25">13</text><text x="361.8641889880953" y="130.25">8</text><text x="361.8641889880953" y="144.25">7</text><text x="361.8641889880953" y="158.25">42</text><text x="361.8641889880953" y="172.25">7</text><text x="361.8641889880953" y="186.25">23</text><text x="361.8641889880953" y="200.25">16</text><text x="361.8641889880953" y="214.25">40</text><text x="465.4066257440476" y="116.25">17</text><text x="465.4066257440476" y="130.25">51</text><text x="465.4066257440476" y="144.25">23</text><text x="465.4066257440476" y="158.25">14</text><text x="465.4066257440476" y="172.25">39</text><text x="465.4066257440476" y="186.25">15</text><text x="465.4066257440476" y="200.25">51</text><text x="465.4066257440476" y="214.25">58</text><text x="578.1757254464286" y="116.25">48</text><text x="578.1757254464286" y="130.25">61</text><text x="578.1757254464286" y="144.25">27</text><text x="578.1757254464286" y="158.25">45</text><text x="578.1757254464286" y="172.25">63</text><text x="578.1757254464286" y="186.25">7</text><text x="578.1757254464286" y="200.25">5</text><text x="578.1757254464286" y="214.25">1</text><text x="668.2856994047619" y="116.25">27</text><text x="668.2856994047619" y="130.25">47</text><text x="668.2856994047619" y="144.25">29</text><text x="668.2856994047619" y="158.25">11</text><text x="668.2856994047619" y="172.25">28</text><text x="668.2856994047619" y="186.25">59</text><text x="668.2856994047619" y="200.25">15</text><text x="668.2856994047619" y="214.25">11</text><text x="773.6356101190477" y="116.25">12</text><text x="773.6356101190477" y="130.25">39</text><text x="773.6356101190477" y="144.25">44</text><text x="773.6356101190477" y="158.25">5</text><text x="773.6356101190477" y="172.25">33</text><text x="773.6356101190477" y="186.25">14</text><text x="773.6356101190477" y="200.25">63</text><text x="773.6356101190477" y="214.25">45</text><text x="930.4861235119047" y="116.25">62</text><text x="930.4861235119047" y="130.25">61</text><text x="930.4861235119047" y="144.25">25</text><text x="930.4861235119047" y="158.25">14</text><text x="930.4861235119047" y="172.25">63</text><text x="930.4861235119047" y="186.25">13</text><text x="930.4861235119047" y="200.25">5</text><text x="930.4861235119047" y="214.25">9</text><text x="1014.0397544642858" y="116.25">1</text><text x="1014.0397544642858" y="130.25">40</text><text x="1014.0397544642858" y="144.25">64</text><text x="1014.0397544642858" y="158.25">18</text><text x="1014.0397544642858" y="172.25">53</text><text x="1014.0397544642858" y="186.25">13</text><text x="1014.0397544642858" y="200.25">59</text><text x="1014.0397544642858" y="214.25">5</text><text x="1144.576681547619" y="116.25">23</text><text x="1144.576681547619" y="130.25">30</text><text x="1144.576681547619" y="144.25">54</text><text x="1144.576681547619" y="158.25">31</text><text x="1144.576681547619" y="172.25">30</text><text x="1144.576681547619" y="186.25">21</text><text x="1144.576681547619" y="200.25">58</text><text x="1144.576681547619" y="214.25">64</text><text x="1281.233474702381" y="116.25">48</text><text x="1281.233474702381" y="130.25">3</text><text x="1281.233474702381" y="144.25">13</text><text x="1281.233474702381" y="158.25">17</text><text x="1281.233474702381" y="172.25">14</text><text x="1281.233474702381" y="186.25">17</text><text x="1281.233474702381" y="200.25">45</text><text x="1281.233474702381" y="214.25">64</text><text x="1430.4359933035714" y="116.25">24</text><text x="1430.4359933035714" y="130.25">63</text><text x="1430.4359933035714" y="144.25">31</text><text x="1430.4359933035714" y="158.25">14</text><text x="1430.4359933035714" y="172.25">50</text><text x="1430.4359933035714" y="186.25">27</text><text x="1430.4359933035714" y="200.25">19</text><text x="1430.4359933035714" y="214.25">52</text><text x="1526.0630357142857" y="116.25">30</text><text x="1526.0630357142857" y="130.25">49</text><text x="1526.0630357142857" y="144.25">59</text><text x="1526.0630357142857" y="158.25">49</text><text x="1526.0630357142857" y="172.25">50</text><text x="1526.0630357142857" y="186.25">61</text><text x="1526.0630357142857" y="200.25">18</text><text x="1526.0630357142857" y="214.25">50</text><text x="1627.982697172619" y="116.25">4</text><text x="1627.982697172619" y="130.25">4</text><text x="1627.982697172619" y="144.25">10</text><text x="1627.982697172619" y="158.25">21</text><text x="1627.982697172619" y="172.25">41</text><text x="1627.982697172619" y="186.25">58</text><text x="1627.982697172619" y="200.25">41</text><text x="1627.982697172619" y="214.25">31</text><text x="1750.1558072916664" y="116.25">29</text><text x="1750.1558072916664" y="130.25">14</text><text x="1750.1558072916664" y="144.25">36</text><text x="1750.1558072916664" y="158.25">44</text><text x="1750.1558072916664" y="172.25">48</text><text x="1750.1558072916664" y="186.25">14</text><text x="1750.1558072916664" y="200.25">55</text><text x="1750.1558072916664" y="214.25">7</text><text x="1853.2194977678573" y="116.25">25</text><text x="1853.2194977678573" y="130.25">21</text><text x="1853.2194977678573" y="144.25">16</text><text x="1853.2194977678573" y="158.25">43</text><text x="1853.2194977678573" y="172.25">54</text><text x="1853.2194977678573" y="186.25">2</text><text x="1853.2194977678573" y="200.25">57</text><text x="1853.2194977678573" y="214.25">45</text><text x="1927.0888541666666" y="116.25">3</text><text x="1927.0888541666666" y="130.25">29</text><text x="1927.0888541666666" y="144.25">20</text><text x="1927.0888541666666" y="158.25">41</text><text x="1927.0888541666666" y="172.25">17</text><text x="1927.0888541666666" y="186.25">20</text><text x="1927.0888541666666" y="200.25">32</text><text x="1927.0888541666666" y="214.25">35</text><text x="2068.194955357143" y="116.25">29</text><text x="2068.194955357143" y="130.25">7</text><text x="2068.194955357143" y="144.25">28</text><text x="2068.194955357143" y="158.25">17</text><text x="2068.194955357143" y="172.25">26</text><text x="2068.194955357143" y="186.25">52</text><text x="2068.194955357143" y="200.25">21</text><text x="2068.194955357143" y="214.25">47</text><text x="67.88824404761905" y="170.5">46</text><text x="67.88824404761905" y="184.5">12</text><text x="67.88824404761905" y="198.5">59</text><text x="67.88824404761905" y="212.5">35</text><text x="67.88824404761905" y="226.5">38</text><text x="67.88824404761905" y="240.5">34</text><text x="67.88824404761905" y="254.5">41</text><text x="67.88824404761905" y="268.5">16</text><text x="134.32462797619047" y="170.5">12</text><text x="134.32462797619047" y="184.5">37</text><text x="134.32462797619047" y="198.5">41</text><text x="134.32462797619047" y="212.5">29</text><text x="134.32462797619047" y="226.5">58</text><text x="134.32462797619047" y="240.5">37</text><text x="134.32462797619047" y="254.5">25</text><text x="134.32462797619047" y="268.5">48</text><text x="257.81543898809525" y="170.5">34</text><text x="257.81543898809525" y="184.5">24</text><text x="257.81543898809525" y="198.5">31</text><text x="257.81543898809525" y="212.5">59</text><text x="257.81543898809525" y="226.5">18</text><text x="257.81543898809525" y="240.5">63</text><text x="257.81543898809525" y="254.5">42</text><text x="257.81543898809525" y="268.5">55</text><text x="366.72792038690477" y="170.5">2</text><text x="366.72792038690477" y="184.5">7</text><text x="366.72792038690477" y="198.5">36</text><text x="366.72792038690477" y="212.5">59</text><text x="366.72792038690477" y="226.5">33</text><text x="366.72792038690477" y="240.5">33</text><text x="366.72792038690477" y="254.5">63</text><text x="366.72792038690477" y="268.5">53</text><text x="456.5410900297619" y="170.5">5</text><text x="456.5410900297619" y="184.5">25</text><text x="456.5410900297619" y="198.5">7</text><text x="456.5410900297619" y="212.5">54</text><text x="456.5410900297619" y="226.5">2</text><text x="456.5410900297619" y="240.5">35</text><text x="456.5410900297619" y="254.5">51</text><text x="456.5410900297619" y="268.5">19</text><text x="524.162853422619" y="170.5">23</text><text x="524.162853422619" y="184.5">35</text><text x="524.162853422619" y="198.5">50</text><text x="524.162853422619" y="212.5">14</text><text x="524.162853422619" y="226.5">42</text><text x="524.162853422619" y="240.5">57</text><text x="524.162853422619" y="254.5">63</text><text x="524.162853422619" y="268.5">32</text><text x="577.190665922619" y="170.5">59</text><text x="577.190665922619" y="184.5">19</text><text x="577.190665922619" y="198.5">48</text><text x="577.190665922619" y="212.5">48</text><text x="577.190665922619" y="226.5">31</text><text x="577.190665922619" y="240.5">26</text><text x="577.190665922619" y="254.5">21</text><text x="577.190665922619" y="268.5">51</text><text x="683.7571986607142" y="170.5">49</text><text x="683.7571986607142" y="184.5">9</text><text x="683.7571986607142" y="198.5">48</text><text x="683.7571986607142" y="212.5">47</text><text x="683.7571986607142" y="226.5">36</text><text x="683.7571986607142" y="240.5">42</text><text x="683.7571986607142" y="254.5">8</text><text x="683.7571986607142" y="268.5">23</text><text x="817.8383184523807" y="170.5">29</text><text x="817.8383184523807" y="184.5">20</text><text x="817.8383184523807" y="198.5">50</text><text x="817.8383184523807" y="212.5">2</text><text x="817.8383184523807" y="226.5">64</text><text x="817.8383184523807" y="240.5">9</text><text x="817.8383184523807" y="254.5">50</text><text x="817.8383184523807" y="268.5">61</text><text x="948.278761160714" y="170.5">15</text><text x="948.278761160714" y="184.5">11</text><text x="948.278761160714" y="198.5">7</text><text x="948.278761160714" y="212.5">61</text><text x="948.278761160714" y="226.5">61</text><text x="948.278761160714" y="240.5">61</text><text x="948.278761160714" y="254.5">47</text><text x="948.278761160714" y="268.5">24</text><text x="1015.0964880952381" y="170.5">51</text><text x="1015.0964880952381" y="184.5">26</text><text x="1015.0964880952381" y="198.5">57</text><text x="1015.0964880952381" y="212.5">22</text><text x="1015.0964880952381" y="226.5">53</text><text x="1015.0964880952381" y="240.5">2</text><text x="1015.0964880952381" y="254.5">61</text><text x="1015.0964880952381" y="268.5">58</text><text x="1186.8901339285715" y="170.5">29</text><text x="1186.8901339285715" y="184.5">41</text><text x="1186.8901339285715" y="198.5">43</text><text x="1186.8901339285715" y="212.5">25</text><text x="1186.8901339285715" y="226.5">29</text><text x="1186.8901339285715" y="240.5">22</text><text x="1186.8901339285715" y="254.5">2</text><text x="1186.8901339285715" y="268.5">7</text><text x="1282.2166964285714" y="170.5">19</text><text x="1282.2166964285714" y="184.5">17</text><text x="1282.2166964285714" y="198.5">30</text><text x="1282.2166964285714" y="212.5">50</text><text x="1282.2166964285714" y="226.5">29</text><text x="1282.2166964285714" y="240.5">12</text><text x="1282.2166964285714" y="254.5">4</text><text x="1282.2166964285714" y="268.5">48</text><text x="1383.391130952381" y="170.5">14</text><text x="1383.391130952381" y="184.5">37</text><text x="1383.391130952381" y="198.5">9</text><text x="1383.391130952381" y="212.5">2</text><text x="1383.391130952381" y="226.5">64</text><text x="1383.391130952381" y="240.5">26</text><text x="1383.391130952381" y="254.5">30</text><text x="1383.391130952381" y="268.5">57</text><text x="1484.1869791666668" y="170.5">31</text><text x="1484.1869791666668" y="184.5">50</text><text x="1484.1869791666668" y="198.5">28</text><text x="1484.1869791666668" y="212.5">58</text><text x="1484.1869791666668" y="226.5">5</text><text x="1484.1869791666668" y="240.5">33</text><text x="1484.1869791666668" y="254.5">20</text><text x="1484.1869791666668" y="268.5">39</text><text x="1571.688199404762" y="170.5">16</text><text x="1571.688199404762" y="184.5">34</text><text x="1571.688199404762" y="198.5">50</text><text x="1571.688199404762" y="212.5">32</text><text x="1571.688199404762" y="226.5">54</text><text x="1571.688199404762" y="240.5">32</text><text x="1571.688199404762" y="254.5">54</text><text x="1571.688199404762" y="268.5">39</text><text x="1757.3415959821427" y="170.5">54</text><text x="1757.3415959821427" y="184.5">28</text><text x="1757.3415959821427" y="198.5">56</text><text x="1757.3415959821427" y="212.5">50</text><text x="1757.3415959821427" y="226.5">6</text><text x="1757.3415959821427" y="240.5">10</text><text x="1757.3415959821427" y="254.5">50</text><text x="1757.3415959821427" y="268.5">47</text><text x="1879.343790922619" y="170.5">37</text><text x="1879.343790922619" y="184.5">54</text><text x="1879.343790922619" y="198.5">36</text><text x="1879.343790922619" y="212.5">15</text><text x="1879.343790922619" y="226.5">52</text><text x="1879.343790922619" y="240.5">47</text><text x="1879.343790922619" y="254.5">22</text><text x="1879.343790922619" y="268.5">22</text><text x="1979.7674851190477" y="170.5">27</text><text x="1979.7674851190477" y="184.5">15</text><text x="1979.7674851190477" y="198.5">1</text><text x="1979.7674851190477" y="212.5">10</text><text x="1979.7674851190477" y="226.5">63</text><text x="1979.7674851190477" y="240.5">13</text><text x="1979.7674851190477" y="254.5">17</text><text x="1979.7674851190477" y="268.5">57</text><text x="179.229375" y="224.75">49</text><text x="179.229375" y="238.75">10</text><text x="179.229375" y="252.75">59</text><text x="179.229375" y="266.75">21</text><text x="179.229375" y="280.75">17</text><text x="179.229375" y="294.75">10</text><text x="179.229375" y="308.75">5</text><text x="179.229375" y="322.75">7</text><text x="269.64534226190483" y="224.75">17</text><text x="269.64534226190483" y="238.75">4</text><text x="269.64534226190483" y="252.75">27</text><text x="269.64534226190483" y="266.75">20</text><text x="269.64534226190483" y="280.75">28</text><text x="269.64534226190483" y="294.75">3</text><text x="269.64534226190483" y="308.75">50</text><text x="269.64534226190483" y="322.75">44</text><text x="380.1962202380952" y="224.75">8</text><text x="380.1962202380952" y="238.75">64</text><text x="380.1962202380952" y="252.75">2</text><text x="380.1962202380952" y="266.75">10</text><text x="380.1962202380952" y="280.75">62</text><text x="380.1962202380952" y="294.75">52</text><text x="380.1962202380952" y="308.75">50</text><text x="380.1962202380952" y="322.75">30</text><text x="511.1245982142856" y="224.75">27</text><text x="511.1245982142856" y="238.75">35</text><text x="511.1245982142856" y="252.75">37</text><text x="511.1245982142856" y="266.75">44</text><text x="511.1245982142856" y="280.75">50</text><text x="511.1245982142856" y="294.75">9</text><text x="511.1245982142856" y="308.75">31</text><text x="511.1245982142856" y="322.75">19</text><text x="594.631365327381" y="224.75">3</text><text x="594.631365327381" y="238.75">11</text><text x="594.631365327381" y="252.75">46</text><text x="594.631365327381" y="266.75">37</text><text x="594.631365327381" y="280.75">30</text><text x="594.631365327381" y="294.75">56</text><text x="594.631365327381" y="308.75">22</text><text x="594.631365327381" y="322.75">46</text><text x="667.3217745535712" y="224.75">57</text><text x="667.3217745535712" y="238.75">8</text><text x="667.3217745535712" y="252.75">24</text><text x="667.3217745535712" y="266.75">55</text><text x="667.3217745535712" y="280.75">6</text><text x="667.3217745535712" y="294.75">5</text><text x="667.3217745535712" y="308.75">48</text><text x="667.3217745535712" y="322.75">57</text><text x="761.906785714286" y="224.75">14</text><text x="761.906785714286" y="238.75">19</text><text x="761.906785714286" y="252.75">60</text><text x="761.906785714286" y="266.75">19</text><text x="761.906785714286" y="280.75">37</text><text x="761.906785714286" y="294.75">25</text><text x="761.906785714286" y="308.75">3</text><text x="761.906785714286" y="322.75">63</text><text x="931.2561607142856" y="224.75">42</text><text x="931.2561607142856" y="238.75">44</text><text x="931.2561607142856" y="252.75">6</text><text x="931.2561607142856" y="266.75">2</text><text x="931.2561607142856" y="280.75">13</text><text x="931.2561607142856" y="294.75">11</text><text x="931.2561607142856" y="308.75">52</text><text x="931.2561607142856" y="322.75">5</text><text x="1009.9984375000001" y="224.75">35</text><text x="1009.9984375000001" y="238.75">20</text><text x="1009.9984375000001" y="252.75">4</text><text x="1009.9984375000001" y="266.75">57</text><text x="1009.9984375000001" y="280.75">36</text><text x="1009.9984375000001" y="294.75">42</text><text x="1009.9984375000001" y="308.75">57</text><text x="1009.9984375000001" y="322.75">64</text><text x="1145.1767224702382" y="224.75">49</text><text x="1145.1767224702382" y="238.75">51</text><text x="1145.1767224702382" y="252.75">35</text><text x="1145.1767224702382" y="266.75">49</text><text x="1145.1767224702382" y="280.75">21</text><text x="1145.1767224702382" y="294.75">10</text><text x="1145.1767224702382" y="308.75">57</text><text x="1145.1767224702382" y="322.75">19</text><text x="1258.895044642857" y="224.75">61</text><text x="1258.895044642857" y="238.75">27</text><text x="1258.895044642857" y="252.75">47</text><text x="1258.895044642857" y="266.75">4</text><text x="1258.895044642857" y="280.75">47</text><text x="1258.895044642857" y="294.75">26</text><text x="1258.895044642857" y="308.75">59</text><text x="1258.895044642857" y="322.75">61</text><text x="1414.483909970238" y="224.75">64</text><text x="1414.483909970238" y="238.75">30</text><text x="1414.483909970238" y="252.75">40</text><text x="1414.483909970238" y="266.75">57</text><text x="1414.483909970238" y="280.75">63</text><text x="1414.483909970238" y="294.75">46</text><text x="1414.483909970238" y="308.75">49</text><text x="1414.483909970238" y="322.75">5</text><text x="1510.0907366071428" y="224.75">57</text><text x="1510.0907366071428" y="238.75">58</text><text x="1510.0907366071428" y="252.75">23</text><text x="1510.0907366071428" y="266.75">47</text><text x="1510.0907366071428" y="280.75">31</text><text x="1510.0907366071428" y="294.75">16</text><text x="1510.0907366071428" y="308.75">12</text><text x="1510.0907366071428" y="322.75">11</text><text x="1600.661997767857" y="224.75">17</text><text x="1600.661997767857" y="238.75">29</text><text x="1600.661997767857" y="252.75">34</text><text x="1600.661997767857" y="266.75">14</text><text x="1600.661997767857" y="280.75">46</text><text x="1600.661997767857" y="294.75">50</text><text x="1600.661997767857" y="308.75">8</text><text x="1600.661997767857" y="322.75">37</text><text x="1669.895509672619" y="224.75">64</text><text x="1669.895509672619" y="238.75">23</text><text x="1669.895509672619" y="252.75">6</text><text x="1669.895509672619" y="266.75">58</text><text x="1669.895509672619" y="280.75">62</text><text x="1669.895509672619" y="294.75">44</text><text x="1669.895509672619" y="308.75">56</text><text x="1669.895509672619" y="322.75">18</text><text x="1781.6712797619048" y="224.75">5</text><text x="1781.6712797619048" y="238.75">32</text><text x="1781.6712797619048" y="252.75">53</text><text x="1781.6712797619048" y="266.75">6</text><text x="1781.6712797619048" y="280.75">5</text><text x="1781.6712797619048" y="294.75">30</text><text x="1781.6712797619048" y="308.75">9</text><text x="1781.6712797619048" y="322.75">4</text><text x="1903.7212574404762" y="224.75">42</text><text x="1903.7212574404762" y="238.75">44</text><text x="1903.7212574404762" y="252.75">7</text><text x="1903.7212574404762" y="266.75">32</text><text x="1903.7212574404762" y="280.75">20</text><text x="1903.7212574404762" y="294.75">39</text><text x="1903.7212574404762" y="308.75">44</text><text x="1903.7212574404762" y="322.75">59</text><text x="1991.312529761905" y="224.75">15</text><text x="1991.312529761905" y="238.75">64</text><text x="1991.312529761905" y="252.75">5</text><text x="1991.312529761905" y="266.75">20</text><text x="1991.312529761905" y="280.75">64</text><text x="1991.312529761905" y="294.75">51</text><text x="1991.312529761905" y="308.75">48</text><text x="1991.312529761905" y="322.75">32</text><text x="92.10765997023805" y="279.0">16</text><text x="92.10765997023805" y="293.0">43</text><text x="92.10765997023805" y="307.0">4</text><text x="92.10765997023805" y="321.0">3</text><text x="92.10765997023805" y="335.0">10</text><text x="92.10765997023805" y="349.0">14</text><text x="92.10765997023805" y="363.0">37</text><text x="92.10765997023805" y="377.0">52</text><text x="209.63849330357132" y="279.0">16</text><text x="209.63849330357132" y="293.0">43</text><text x="209.63849330357132" y="307.0">11</text><text x="209.63849330357132" y="321.0">20</text><text x="209.63849330357132" y="335.0">57</text><text x="209.63849330357132" y="349.0">40</text><text x="209.63849330357132" y="363.0">55</text><text x="209.63849330357132" y="377.0">60</text><text x="313.77637648809525" y="279.0">29</text><text x="313.77637648809525" y="293.0">64</text><text x="313.77637648809525" y="307.0">1</text><text x="313.77637648809525" y="321.0">44</text><text x="313.77637648809525" y="335.0">33</text><text x="313.77637648809525" y="349.0">52</text><text x="313.77637648809525" y="363.0">27</text><text x="313.77637648809525" y="377.0">18</text><text x="374.6405580357143" y="279.0">16</text><text x="374.6405580357143" y="293.0">62</text><text x="374.6405580357143" y="307.0">48</text><text x="374.6405580357143" y="321.0">54</text><text x="374.6405580357143" y="335.0">45</text><text x="374.6405580357143" y="349.0">44</text><text x="374.6405580357143" y="363.0">16</text><text x="374.6405580357143" y="377.0">6</text><text x="534.1227976190478" y="279.0">12</text><text x="534.1227976190478" y="293.0">24</text><text x="534.1227976190478" y="307.0">8</text><text x="534.1227976190478" y="321.0">28</text><text x="534.1227976190478" y="335.0">32</text><text x="534.1227976190478" y="349.0">53</text><text x="534.1227976190478" y="363.0">58</text><text x="534.1227976190478" y="377.0">44</text><text x="697.9440773809524" y="279.0">26</text><text x="697.9440773809524" y="293.0">36</text><text x="697.9440773809524" y="307.0">46</text><text x="697.9440773809524" y="321.0">52</text><text x="697.9440773809524" y="335.0">14</text><text x="697.9440773809524" y="349.0">15</text><text x="697.9440773809524" y="363.0">1</text><text x="697.9440773809524" y="377.0">14</text><text x="870.1245796130951" y="279.0">6</text><text x="870.1245796130951" y="293.0">57</text><text x="870.1245796130951" y="307.0">22</text><text x="870.1245796130951" y="321.0">8</text><text x="870.1245796130951" y="335.0">7</text><text x="870.1245796130951" y="349.0">37</text><text x="870.1245796130951" y="363.0">62</text><text x="870.1245796130951" y="377.0">33</text><text x="1004.3462909226191" y="279.0">44</text><text x="1004.3462909226191" y="293.0">51</text><text x="1004.3462909226191" y="307.0">56</text><text x="1004.3462909226191" y="321.0">13</text><text x="1004.3462909226191" y="335.0">23</text><text x="1004.3462909226191" y="349.0">49</text><text x="1004.3462909226191" y="363.0">48</text><text x="1004.3462909226191" y="377.0">63</text><text x="1073.453913690476" y="279.0">20</text><text x="1073.453913690476" y="293.0">36</text><text x="1073.453913690476" y="307.0">45</text><text x="1073.453913690476" y="321.0">41</text><text x="1073.453913690476" y="335.0">4</text><text x="1073.453913690476" y="349.0">47</text><text x="1073.453913690476" y="363.0">37</text><text x="1073.453913690476" y="377.0">61</text><text x="1188.3686421130951" y="279.0">35</text><text x="1188.3686421130951" y="293.0">10</text><text x="1188.3686421130951" y="307.0">32</text><text x="1188.3686421130951" y="321.0">26</text><text x="1188.3686421130951" y="335.0">47</text><text x="1188.3686421130951" y="349.0">2</text><text x="1188.3686421130951" y="363.0">57</text><text x="1188.3686421130951" y="377.0">29</text><text x="1294.7164769345236" y="279.0">13</text><text x="1294.7164769345236" y="293.0">49</text><text x="1294.7164769345236" y="307.0">50</text><text x="1294.7164769345236" y="321.0">4</text><text x="1294.7164769345236" y="335.0">21</text><text x="1294.7164769345236" y="349.0">60</text><text x="1294.7164769345236" y="363.0">22</text><text x="1294.7164769345236" y="377.0">53</text><text x="1398.6375" y="279.0">6</text><text x="1398.6375" y="293.0">15</text><text x="1398.6375" y="307.0">64</text><text x="1398.6375" y="321.0">49</text><text x="1398.6375" y="335.0">2</text><text x="1398.6375" y="349.0">27</text><text x="1398.6375" y="363.0">15</text><text x="1398.6375" y="377.0">35</text><text x="1474.6488095238096" y="279.0">15</text><text x="1474.6488095238096" y="293.0">26</text><text x="1474.6488095238096" y="307.0">42</text><text x="1474.6488095238096" y="321.0">4</text><text x="1474.6488095238096" y="335.0">5</text><text x="1474.6488095238096" y="349.0">25</text><text x="1474.6488095238096" y="363.0">32</text><text x="1474.6488095238096" y="377.0">10</text><text x="1611.2550632440475" y="279.0">20</text><text x="1611.2550632440475" y="293.0">49</text><text x="1611.2550632440475" y="307.0">12</text><text x="1611.2550632440475" y="321.0">32</text><text x="1611.2550632440475" y="335.0">57</text><text x="1611.2550632440475" y="349.0">51</text><text x="1611.2550632440475" y="363.0">41</text><text x="1611.2550632440475" y="377.0">48</text><text x="1788.5648586309521" y="279.0">53</text><text x="1788.5648586309521" y="293.0">3</text><text x="1788.5648586309521" y="307.0">26</text><text x="1788.5648586309521" y="321.0">53</text><text x="1788.5648586309521" y="335.0">6</text><text x="1788.5648586309521" y="349.0">35</text><text x="1788.5648586309521" y="363.0">18</text><text x="1788.5648586309521" y="377.0">6</text><text x="1910.3217075892858" y="279.0">51</text><text x="1910.3217075892858" y="293.0">11</text><text x="1910.3217075892858" y="307.0">64</text><text x="1910.3217075892858" y="321.0">42</text><text x="1910.3217075892858" y="335.0">22</text><text x="1910.3217075892858" y="349.0">10</text><text x="1910.3217075892858" y="363.0">46</text><text x="1910.3217075892858" y="377.0">61</text><text x="2015.5512425595239" y="279.0">62</text><text x="2015.5512425595239" y="293.0">19</text><text x="2015.5512425595239" y="307.0">9</text><text x="2015.5512425595239" y="321.0">27</text><text x="2015.5512425595239" y="335.0">26</text><text x="2015.5512425595239" y="349.0">23</text><text x="2015.5512425595239" y="363.0">5</text><text x="2015.5512425595239" y="377.0">64</text><text x="547.024136904762" y="333.25">45</text><text x="547.024136904762" y="347.25">53</text><text x="547.024136904762" y="361.25">35</text><text x="547.024136904762" y="375.25">46</text><text x="547.024136904762" y="389.25">62</text><text x="547.024136904762" y="403.25">13</text><text x="547.024136904762" y="417.25">36</text><text x="547.024136904762" y="431.25">13</text><text x="658.828392857143" y="333.25">31</text><text x="658.828392857143" y="347.25">19</text><text x="658.828392857143" y="361.25">29</text><text x="658.828392857143" y="375.25">49</text><text x="658.828392857143" y="389.25">4</text><text x="658.828392857143" y="403.25">22</text><text x="658.828392857143" y="417.25">50</text><text x="658.828392857143" y="431.25">35</text><text x="727.753154761905" y="333.25">2</text><text x="727.753154761905" y="347.25">21</text><text x="727.753154761905" y="361.25">33</text><text x="727.753154761905" y="375.25">27</text><text x="727.753154761905" y="389.25">46</text><text x="727.753154761905" y="403.25">38</text><text x="727.753154761905" y="417.25">19</text><text x="727.753154761905" y="431.25">46</text><text x="812.622648809524" y="333.25">3</text><text x="812.622648809524" y="347.25">24</text><text x="812.622648809524" y="361.25">17</text><text x="812.622648809524" y="375.25">10</text><text x="812.622648809524" y="389.25">4</text><text x="812.622648809524" y="403.25">37</text><text x="812.622648809524" y="417.25">29</text><text x="812.622648809524" y="431.25">32</text><text x="864.8877752976191" y="333.25">2</text><text x="864.8877752976191" y="347.25">42</text><text x="864.8877752976191" y="361.25">49</text><text x="864.8877752976191" y="375.25">58</text><text x="864.8877752976191" y="389.25">60</text><text x="864.8877752976191" y="403.25">30</text><text x="864.8877752976191" y="417.25">7</text><text x="864.8877752976191" y="431.25">61</text><text x="972.6939025297622" y="333.25">57</text><text x="972.6939025297622" y="347.25">22</text><text x="972.6939025297622" y="361.25">39</text><text x="972.6939025297622" y="375.25">32</text><text x="972.6939025297622" y="389.25">22</text><text x="972.6939025297622" y="403.25">24</text><text x="972.6939025297622" y="417.25">21</text><text x="972.6939025297622" y="431.25">62</text><text x="1180.602109375" y="333.25">53</text><text x="1180.602109375" y="347.25">5</text><text x="1180.602109375" y="361.25">51</text><text x="1180.602109375" y="375.25">5</text><text x="1180.602109375" y="389.25">22</text><text x="1180.602109375" y="403.25">17</text><text x="1180.602109375" y="417.25">64</text><text x="1180.602109375" y="431.25">29</text><text x="1280.922886904762" y="333.25">32</text><text x="1280.922886904762" y="347.25">57</text><text x="1280.922886904762" y="361.25">34</text><text x="1280.922886904762" y="375.25">10</text><text x="1280.922886904762" y="389.25">29</text><text x="1280.922886904762" y="403.25">23</text><text x="1280.922886904762" y="417.25">13</text><text x="1280.922886904762" y="431.25">47</text><text x="1382.0127827380957" y="333.25">35</text><text x="1382.0127827380957" y="347.25">18</text><text x="1382.0127827380957" y="361.25">16</text><text x="1382.0127827380957" y="375.25">12</text><text x="1382.0127827380957" y="389.25">43</text><text x="1382.0127827380957" y="403.25">1</text><text x="1382.0127827380957" y="417.25">60</text><text x="1382.0127827380957" y="431.25">11</text><text x="1480.0500967261905" y="333.25">34</text><text x="1480.0500967261905" y="347.25">1</text><text x="1480.0500967261905" y="361.25">40</text><text x="1480.0500967261905" y="375.25">57</text><text x="1480.0500967261905" y="389.25">26</text><text x="1480.0500967261905" y="403.25">46</text><text x="1480.0500967261905" y="417.25">63</text><text x="1480.0500967261905" y="431.25">43</text><text x="1544.3527976190474" y="333.25">41</text><text x="1544.3527976190474" y="347.25">34</text><text x="1544.3527976190474" y="361.25">15</text><text x="1544.3527976190474" y="375.25">22</text><text x="1544.3527976190474" y="389.25">48</text><text x="1544.3527976190474" y="403.25">32</text><text x="1544.3527976190474" y="417.25">50</text><text x="1544.3527976190474" y="431.25">21</text><text x="1630.2569717261904" y="333.25">50</text><text x="1630.2569717261904" y="347.25">53</text><text x="1630.2569717261904" y="361.25">34</text><text x="1630.2569717261904" y="375.25">58</text><text x="1630.2569717261904" y="389.25">40</text><text x="1630.2569717261904" y="403.25">10</text><text x="1630.2569717261904" y="417.25">19</text><text x="1630.2569717261904" y="431.25">12</text><text x="1752.3152194940476" y="333.25">10</text><text x="1752.3152194940476" y="347.25">23</text><text x="1752.3152194940476" y="361.25">56</text><text x="1752.3152194940476" y="375.25">42</text><text x="1752.3152194940476" y="389.25">35</text><text x="1752.3152194940476" y="403.25">12</text><text x="1752.3152194940476" y="417.25">19</text><text x="1752.3152194940476" y="431.25">36</text><text x="1849.3141778273807" y="333.25">54</text><text x="1849.3141778273807" y="347.25">47</text><text x="1849.3141778273807" y="361.25">18</text><text x="1849.3141778273807" y="375.25">30</text><text x="1849.3141778273807" y="389.25">36</text><text x="1849.3141778273807" y="403.25">40</text><text x="1849.3141778273807" y="417.25">19</text><text x="1849.3141778273807" y="431.25">12</text><text x="2045.071785714286" y="333.25">21</text><text x="2045.071785714286" y="347.25">47</text><text x="2045.071785714286" y="361.25">37</text><text x="2045.071785714286" y="375.25">46</text><text x="2045.071785714286" y="389.25">49</text><text x="2045.071785714286" y="403.25">4</text><text x="2045.071785714286" y="417.25">57</text><text x="2045.071785714286" y="431.25">55</text><text x="2185.7037351190475" y="333.25">50</text><text x="2185.7037351190475" y="347.25">49</text><text x="2185.7037351190475" y="361.25">25</text><text x="2185.7037351190475" y="375.25">4</text><text x="2185.7037351190475" y="389.25">61</text><text x="2185.7037351190475" y="403.25">13</text><text x="2185.7037351190475" y="417.25">31</text><text x="2185.7037351190475" y="431.25">7</text><text x="2299.117901785715" y="333.25">7</text><text x="2299.117901785715" y="347.25">23</text><text x="2299.117901785715" y="361.25">30</text><text x="2299.117901785715" y="375.25">62</text><text x="2299.117901785715" y="389.25">13</text><text x="2299.117901785715" y="403.25">62</text><text x="2299.117901785715" y="417.25">44</text><text x="2299.117901785715" y="431.25">21</text><text x="2434.4790476190474" y="333.25">24</text><text x="2434.4790476190474" y="347.25">45</text><text x="2434.4790476190474" y="361.25">3</text><text x="2434.4790476190474" y="375.25">1</text><text x="2434.4790476190474" y="389.25">61</text><text x="2434.4790476190474" y="403.25">20</text><text x="2434.4790476190474" y="417.25">51</text><text x="2434.4790476190474" y="431.25">31</text><text x="1006.274140625" y="387.5">55</text><text x="1006.274140625" y="401.5">27</text><text x="1006.274140625" y="415.5">42</text><text x="1006.274140625" y="429.5">60</text><text x="1006.274140625" y="443.5">63</text><text x="1006.274140625" y="457.5">47</text><text x="1006.274140625" y="471.5">23</text><text x="1006.274140625" y="485.5">57</text><text x="1100.549482886905" y="387.5">57</text><text x="1100.549482886905" y="401.5">31</text><text x="1100.549482886905" y="415.5">8</text><text x="1100.549482886905" y="429.5">55</text><text x="1100.549482886905" y="443.5">54</text><text x="1100.549482886905" y="457.5">13</text><text x="1100.549482886905" y="471.5">50</text><text x="1100.549482886905" y="485.5">33</text><text x="1223.313444940476" y="387.5">28</text><text x="1223.313444940476" y="401.5">50</text><text x="1223.313444940476" y="415.5">29</text><text x="1223.313444940476" y="429.5">11</text><text x="1223.313444940476" y="443.5">49</text><text x="1223.313444940476" y="457.5">43</text><text x="1223.313444940476" y="471.5">47</text><text x="1223.313444940476" y="485.5">28</text><text x="1303.6307142857145" y="387.5">14</text><text x="1303.6307142857145" y="401.5">48</text><text x="1303.6307142857145" y="415.5">3</text><text x="1303.6307142857145" y="429.5">64</text><text x="1303.6307142857145" y="443.5">22</text><text x="1303.6307142857145" y="457.5">45</text><text x="1303.6307142857145" y="471.5">58</text><text x="1303.6307142857145" y="485.5">35</text><text x="1498.4822879464286" y="387.5">34</text><text x="1498.4822879464286" y="401.5">24</text><text x="1498.4822879464286" y="415.5">56</text><text x="1498.4822879464286" y="429.5">7</text><text x="1498.4822879464286" y="443.5">47</text><text x="1498.4822879464286" y="457.5">40</text><text x="1498.4822879464286" y="471.5">53</text><text x="1498.4822879464286" y="485.5">1</text><text x="1612.6380059523813" y="387.5">27</text><text x="1612.6380059523813" y="401.5">46</text><text x="1612.6380059523813" y="415.5">47</text><text x="1612.6380059523813" y="429.5">55</text><text x="1612.6380059523813" y="443.5">21</text><text x="1612.6380059523813" y="457.5">34</text><text x="1612.6380059523813" y="471.5">42</text><text x="1612.6380059523813" y="485.5">47</text><text x="1700.7484561011904" y="387.5">7</text><text x="1700.7484561011904" y="401.5">61</text><text x="1700.7484561011904" y="415.5">20</text><text x="1700.7484561011904" y="429.5">50</text><text x="1700.7484561011904" y="443.5">27</text><text x="1700.7484561011904" y="457.5">38</text><text x="1700.7484561011904" y="471.5">52</text><text x="1700.7484561011904" y="485.5">28</text><text x="1759.7298139880952" y="387.5">12</text><text x="1759.7298139880952" y="401.5">11</text><text x="1759.7298139880952" y="415.5">5</text><text x="1759.7298139880952" y="429.5">27</text><text x="1759.7298139880952" y="443.5">22</text><text x="1759.7298139880952" y="457.5">28</text><text x="1759.7298139880952" y="471.5">6</text><text x="1759.7298139880952" y="485.5">3</text><text x="1842.7137276785718" y="387.5">10</text><text x="1842.7137276785718" y="401.5">59</text><text x="1842.7137276785718" y="415.5">46</text><text x="1842.7137276785718" y="429.5">61</text><text x="1842.7137276785718" y="443.5">43</text><text x="1842.7137276785718" y="457.5">50</text><text x="1842.7137276785718" y="471.5">27</text><text x="1842.7137276785718" y="485.5">30</text><text x="1964.5946279761908" y="387.5">62</text><text x="1964.5946279761908" y="401.5">40</text><text x="1964.5946279761908" y="415.5">1</text><text x="1964.5946279761908" y="429.5">17</text><text x="1964.5946279761908" y="443.5">9</text><text x="1964.5946279761908" y="457.5">56</text><text x="1964.5946279761908" y="471.5">34</text><text x="1964.5946279761908" y="485.5">40</text><text x="2150.8903348214285" y="387.5">64</text><text x="2150.8903348214285" y="401.5">12</text><text x="2150.8903348214285" y="415.5">32</text><text x="2150.8903348214285" y="429.5">64</text><text x="2150.8903348214285" y="443.5">43</text><text x="2150.8903348214285" y="457.5">61</text><text x="2150.8903348214285" y="471.5">21</text><text x="2150.8903348214285" y="485.5">61</text><text x="2266.556722470238" y="387.5">21</text><text x="2266.556722470238" y="401.5">10</text><text x="2266.556722470238" y="415.5">53</text><text x="2266.556722470238" y="429.5">12</text><text x="2266.556722470238" y="443.5">11</text><text x="2266.556722470238" y="457.5">48</text><text x="2266.556722470238" y="471.5">37</text><text x="2266.556722470238" y="485.5">52</text><text x="2358.952916666667" y="387.5">54</text><text x="2358.952916666667" y="401.5">49</text><text x="2358.952916666667" y="415.5">25</text><text x="2358.952916666667" y="429.5">23</text><text x="2358.952916666667" y="443.5">40</text><text x="2358.952916666667" y="457.5">63</text><text x="2358.952916666667" y="471.5">11</text><text x="2358.952916666667" y="485.5">51</text><text x="2412.4263950892855" y="387.5">9</text><text x="2412.4263950892855" y="401.5">37</text><text x="2412.4263950892855" y="415.5">13</text><text x="2412.4263950892855" y="429.5">20</text><text x="2412.4263950892855" y="443.5">9</text><text x="2412.4263950892855" y="457.5">38</text><text x="2412.4263950892855" y="471.5">63</text><text x="2412.4263950892855" y="485.5">10</text><text x="2551.6423214285714" y="387.5">29</text><text x="2551.6423214285714" y="401.5">20</text><text x="2551.6423214285714" y="415.5">32</text><text x="2551.6423214285714" y="429.5">24</text><text x="2551.6423214285714" y="443.5">36</text><text x="2551.6423214285714" y="457.5">26</text><text x="2551.6423214285714" y="471.5">10</text><text x="2551.6423214285714" y="485.5">44</text><text x="2674.776599702381" y="387.5">10</text><text x="2674.776599702381" y="401.5">51</text><text x="2674.776599702381" y="415.5">43</text><text x="2674.776599702381" y="429.5">60</text><text x="2674.776599702381" y="443.5">11</text><text x="2674.776599702381" y="457.5">52</text><text x="2674.776599702381" y="471.5">44</text><text x="2674.776599702381" y="485.5">17</text><text x="2813.8445833333335" y="387.5">32</text><text x="2813.8445833333335" y="401.5">18</text><text x="2813.8445833333335" y="415.5">32</text><text x="2813.8445833333335" y="429.5">44</text><text x="2813.8445833333335" y="443.5">12</text><text x="2813.8445833333335" y="457.5">55</text><text x="2813.8445833333335" y="471.5">3</text><text x="2813.8445833333335" y="485.5">42</text><text x="2928.6830431547623" y="387.5">35</text><text x="2928.6830431547623" y="401.5">59</text><text x="2928.6830431547623" y="415.5">57</text><text x="2928.6830431547623" y="429.5">10</text><text x="2928.6830431547623" y="443.5">63</text><text x="2928.6830431547623" y="457.5">10</text><text x="2928.6830431547623" y="471.5">27</text><text x="2928.6830431547623" y="485.5">45</text><text x="1567.1470014880952" y="441.75">28</text><text x="1567.1470014880952" y="455.75">37</text><text x="1567.1470014880952" y="469.75">22</text><text x="1567.1470014880952" y="483.75">54</text><text x="1567.1470014880952" y="497.75">22</text><text x="1567.1470014880952" y="511.75">61</text><text x="1567.1470014880952" y="525.75">12</text><text x="1567.1470014880952" y="539.75">49</text><text x="1683.0899776785714" y="441.75">35</text><text x="1683.0899776785714" y="455.75">48</text><text x="1683.0899776785714" y="469.75">52</text><text x="1683.0899776785714" y="483.75">49</text><text x="1683.0899776785714" y="497.75">8</text><text x="1683.0899776785714" y="511.75">46</text><text x="1683.0899776785714" y="525.75">34</text><text x="1683.0899776785714" y="539.75">26</text><text x="1781.1309672619047" y="441.75">9</text><text x="1781.1309672619047" y="455.75">14</text><text x="1781.1309672619047" y="469.75">47</text><text x="1781.1309672619047" y="483.75">33</text><text x="1781.1309672619047" y="497.75">37</text><text x="1781.1309672619047" y="511.75">7</text><text x="1781.1309672619047" y="525.75">8</text><text x="1781.1309672619047" y="539.75">59</text><text x="1930.346350446429" y="441.75">14</text><text x="1930.346350446429" y="455.75">28</text><text x="1930.346350446429" y="469.75">14</text><text x="1930.346350446429" y="483.75">20</text><text x="1930.346350446429" y="497.75">11</text><text x="1930.346350446429" y="511.75">19</text><text x="1930.346350446429" y="525.75">20</text><text x="1930.346350446429" y="539.75">8</text><text x="2052.5562165178567" y="441.75">32</text><text x="2052.5562165178567" y="455.75">13</text><text x="2052.5562165178567" y="469.75">55</text><text x="2052.5562165178567" y="483.75">6</text><text x="2052.5562165178567" y="497.75">30</text><text x="2052.5562165178567" y="511.75">27</text><text x="2052.5562165178567" y="525.75">30</text><text x="2052.5562165178567" y="539.75">34</text><text x="2155.8689285714286" y="441.75">37</text><text x="2155.8689285714286" y="455.75">34</text><text x="2155.8689285714286" y="469.75">46</text><text x="2155.8689285714286" y="483.75">24</text><text x="2155.8689285714286" y="497.75">44</text><text x="2155.8689285714286" y="511.75">37</text><text x="2155.8689285714286" y="525.75">63</text><text x="2155.8689285714286" y="539.75">49</text><text x="2280.4771205357147" y="441.75">10</text><text x="2280.4771205357147" y="455.75">59</text><text x="2280.4771205357147" y="469.75">11</text><text x="2280.4771205357147" y="483.75">33</text><text x="2280.4771205357147" y="497.75">12</text><text x="2280.4771205357147" y="511.75">64</text><text x="2280.4771205357147" y="525.75">51</text><text x="2280.4771205357147" y="539.75">20</text><text x="2412.840818452381" y="441.75">8</text><text x="2412.840818452381" y="455.75">44</text><text x="2412.840818452381" y="469.75">54</text><text x="2412.840818452381" y="483.75">53</text><text x="2412.840818452381" y="497.75">1</text><text x="2412.840818452381" y="511.75">41</text><text x="2412.840818452381" y="525.75">33</text><text x="2412.840818452381" y="539.75">36</text><text x="2498.1127901785712" y="441.75">64</text><text x="2498.1127901785712" y="455.75">47</text><text x="2498.1127901785712" y="469.75">21</text><text x="2498.1127901785712" y="483.75">14</text><text x="2498.1127901785712" y="497.75">33</text><text x="2498.1127901785712" y="511.75">1</text><text x="2498.1127901785712" y="525.75">35</text><text x="2498.1127901785712" y="539.75">48</text><text x="2582.592671130952" y="441.75">29</text><text x="2582.592671130952" y="455.75">18</text><text x="2582.592671130952" y="469.75">50</text><text x="2582.592671130952" y="483.75">21</text><text x="2582.592671130952" y="497.75">11</text><text x="2582.592671130952" y="511.75">6</text><text x="2582.592671130952" y="525.75">54</text><text x="2582.592671130952" y="539.75">20</text><text x="2637.7082217261905" y="441.75">12</text><text x="2637.7082217261905" y="455.75">11</text><text x="2637.7082217261905" y="469.75">9</text><text x="2637.7082217261905" y="483.75">56</text><text x="2637.7082217261905" y="497.75">38</text><text x="2637.7082217261905" y="511.75">61</text><text x="2637.7082217261905" y="525.75">22</text><text x="2637.7082217261905" y="539.75">52</text><text x="2686.2168898809523" y="441.75">52</text><text x="2686.2168898809523" y="455.75">56</text><text x="2686.2168898809523" y="469.75">52</text><text x="2686.2168898809523" y="483.75">8</text><text x="2686.2168898809523" y="497.75">42</text><text x="2686.2168898809523" y="511.75">2</text><text x="2686.2168898809523" y="525.75">57</text><text x="2686.2168898809523" y="539.75">20</text><text x="2791.665122767857" y="441.75">59</text><text x="2791.665122767857" y="455.75">51</text><text x="2791.665122767857" y="469.75">26</text><text x="2791.665122767857" y="483.75">5</text><text x="2791.665122767857" y="497.75">23</text><text x="2791.665122767857" y="511.75">9</text><text x="2791.665122767857" y="525.75">16</text><text x="2791.665122767857" y="539.75">43</text><text x="2850.3597842261906" y="441.75">50</text><text x="2850.3597842261906" y="455.75">8</text><text x="2850.3597842261906" y="469.75">32</text><text x="2850.3597842261906" y="483.75">33</text><text x="2850.3597842261906" y="497.75">52</text><text x="2850.3597842261906" y="511.75">22</text><text x="2850.3597842261906" y="525.75">11</text><text x="2850.3597842261906" y="539.75">23</text><text x="2935.847697172619" y="441.75">39</text><text x="2935.847697172619" y="455.75">51</text><text x="2935.847697172619" y="469.75">60</text><text x="2935.847697172619" y="483.75">8</text><text x="2935.847697172619" y="497.75">22</text><text x="2935.847697172619" y="511.75">12</text><text x="2935.847697172619" y="525.75">56</text><text x="2935.847697172619" y="539.75">15</text><text x="3057.533790922619" y="441.75">34</text><text x="3057.533790922619" y="455.75">23</text><text x="3057.533790922619" y="469.75">2</text><text x="3057.533790922619" y="483.75">16</text><text x="3057.533790922619" y="497.75">15</text><text x="3057.533790922619" y="511.75">56</text><text x="3057.533790922619" y="525.75">26</text><text x="3057.533790922619" y="539.75">33</text><text x="3166.8662090773814" y="441.75">28</text><text x="3166.8662090773814" y="455.75">37</text><text x="3166.8662090773814" y="469.75">15</text><text x="3166.8662090773814" y="483.75">22</text><text x="3166.8662090773814" y="497.75">34</text><text x="3166.8662090773814" y="511.75">8</text><text x="3166.8662090773814" y="525.75">44</text><text x="3166.8662090773814" y="539.75">43</text><text x="3269.4143973214286" y="441.75">60</text><text x="3269.4143973214286" y="455.75">32</text><text x="3269.4143973214286" y="469.75">61</text><text x="3269.4143973214286" y="483.75">53</text><text x="3269.4143973214286" y="497.75">43</text><text x="3269.4143973214286" y="511.75">43</text><text x="3269.4143973214286" y="525.75">8</text><text x="3269.4143973214286" y="539.75">53</text><text x="3404.148854166666" y="441.75">39</text><text x="3404.148854166666" y="455.75">41</text><text x="3404.148854166666" y="469.75">44</text><text x="3404.148854166666" y="483.75">61</text><text x="3404.148854166666" y="497.75">15</text><text x="3404.148854166666" y="511.75">3</text><text x="3404.148854166666" y="525.75">33</text><text x="3404.148854166666" y="539.75">62</text></g></g></svg>